<?xml version="1.0" encoding="UTF-8" standalone="no"?>
<!DOCTYPE svg PUBLIC "-//W3C//DTD SVG 1.1//EN" "http://www.w3.org/Graphics/SVG/1.1/DTD/svg11.dtd">
<svg xmlns="http://www.w3.org/2000/svg" version="1.1" viewBox="0.00 0.00 500.00 500.00">
<g stroke-width="2.00" fill="none" stroke-linecap="butt">
<path stroke="#b99ec5" vector-effect="non-scaling-stroke" d="
  M 336.06 131.21
  L 336.10 120.95
  A 2.23 2.23 0.0 0 0 333.88 118.71
  L 323.10 118.67
  A 1.53 1.49 0.2 0 0 321.56 120.15
  L 321.52 131.89
  A 1.53 1.49 0.2 0 0 323.04 133.39
  L 333.82 133.43
  A 2.23 2.23 0.0 0 0 336.06 131.21"
/>
<path stroke="#b99ec5" vector-effect="non-scaling-stroke" d="
  M 358.12 146.34
  L 358.16 139.78
  A 1.94 1.94 0.0 0 0 356.23 137.83
  L 350.04 137.80
  A 2.81 2.48 0.3 0 0 347.21 140.26
  L 347.19 145.74
  A 2.81 2.48 0.3 0 0 349.98 148.24
  L 356.17 148.27
  A 1.94 1.94 0.0 0 0 358.12 146.34"
/>
<path stroke="#b99ec5" vector-effect="non-scaling-stroke" d="
  M 223.62 186.99
  Q 235.81 182.45 246.21 179.43
  Q 258.62 175.84 277.19 172.74
  C 279.34 172.38 281.42 172.27 283.55 172.13
  Q 284.32 172.08 284.29 171.32
  Q 284.11 166.00 284.30 159.59
  Q 284.48 153.70 282.61 150.83
  Q 279.43 145.95 273.62 145.95
  Q 253.43 145.95 234.45 145.96
  C 229.18 145.96 226.05 148.08 224.01 152.98
  Q 223.20 154.92 223.20 157.22
  Q 223.22 171.42 223.27 186.75
  A 0.26 0.26 0.0 0 0 223.62 186.99"
/>
<path stroke="#b99ec5" vector-effect="non-scaling-stroke" d="
  M 320.9632 153.0162
  A 1.97 1.97 0.0 0 0 318.9863 151.0531
  L 303.5264 151.1070
  A 1.97 1.97 0.0 0 0 301.5633 153.0839
  L 301.6168 168.4238
  A 1.97 1.97 0.0 0 0 303.5937 170.3869
  L 319.0536 170.3330
  A 1.97 1.97 0.0 0 0 321.0167 168.3561
  L 320.9632 153.0162"
/>
<path stroke="#b99ec5" vector-effect="non-scaling-stroke" d="
  M 192.19 223.38
  C 179.94 234.09 170.00 247.19 167.54 263.66
  C 166.00 273.98 169.07 285.67 174.03 294.38
  C 180.20 305.23 190.88 316.38 202.16 323.72
  Q 203.15 324.37 202.58 323.33
  C 201.60 321.56 199.96 320.17 198.85 318.40
  C 190.94 305.81 185.47 291.51 186.76 277.17
  Q 187.83 265.29 194.05 255.00
  Q 200.84 243.76 210.77 235.75
  Q 212.96 233.97 215.09 232.22
  Q 217.10 230.57 219.37 228.94
  C 232.56 219.49 246.59 212.69 261.73 206.61
  C 267.88 204.15 274.14 202.31 280.26 200.23
  Q 287.28 197.83 294.40 196.10
  C 302.16 194.22 309.57 192.13 317.59 190.68
  C 329.29 188.57 340.48 186.42 353.00 184.93
  Q 367.57 183.19 382.22 182.12
  Q 388.93 181.64 395.10 181.55
  A 0.30 0.28 -71.6 0 0 395.34 181.42
  Q 395.48 181.19 395.32 181.00
  Q 395.16 180.81 394.92 180.75
  Q 392.31 180.07 389.38 179.80
  Q 357.78 176.88 325.25 178.85
  C 309.44 179.82 293.59 182.14 278.52 185.29
  Q 261.00 188.95 244.26 194.73
  Q 235.42 197.79 226.23 202.08
  C 214.13 207.74 201.93 214.86 192.19 223.38"
/>
<path stroke="#b99ec5" vector-effect="non-scaling-stroke" d="
  M 283.67 213.83
  Q 278.41 215.40 275.24 216.69
  Q 253.71 225.51 235.28 236.27
  Q 229.96 239.38 224.74 243.10
  A 3.68 3.67 -17.8 0 0 223.20 246.09
  L 223.19 335.27
  A 0.64 0.64 0.0 0 0 223.95 335.90
  C 233.52 334.10 242.62 331.01 251.63 327.67
  Q 268.18 321.52 283.46 310.76
  A 1.88 1.87 72.6 0 0 284.26 309.22
  L 284.25 214.27
  Q 284.25 213.66 283.67 213.83"
/>
<path stroke="#b99ec5" vector-effect="non-scaling-stroke" d="
  M 114.08 361.60
  C 103.79 361.05 92.64 359.95 81.96 359.02
  C 77.22 358.61 72.80 357.76 68.12 357.35
  A 0.27 0.27 0.0 0 0 67.82 357.58
  L 67.76 357.92
  A 0.65 0.64 11.7 0 0 68.23 358.63
  C 75.70 360.69 82.88 363.27 90.57 365.11
  Q 100.00 367.37 109.94 369.32
  Q 125.54 372.37 149.76 374.45
  Q 168.23 376.03 193.22 375.03
  Q 202.87 374.65 213.16 373.50
  Q 230.28 371.58 238.49 369.92
  Q 246.63 368.26 257.84 365.50
  C 265.75 363.54 273.53 360.80 281.05 358.03
  C 296.60 352.31 312.58 343.50 325.16 332.20
  C 336.03 322.43 344.40 308.44 344.95 293.53
  C 345.63 275.13 334.53 258.90 321.69 246.92
  Q 320.07 245.42 320.78 247.51
  C 324.20 257.50 326.80 267.93 325.39 278.18
  Q 323.97 288.53 320.55 295.70
  Q 314.06 309.32 301.70 319.34
  Q 291.06 327.97 281.90 332.71
  C 275.95 335.78 269.75 338.87 263.45 341.29
  Q 243.91 348.82 227.42 352.71
  Q 207.97 357.31 191.74 359.20
  Q 164.43 362.39 137.54 362.52
  C 129.98 362.55 121.98 362.02 114.08 361.60"
/>
</g>
<path fill="#723c8a" d="
  M 244.12 0.00
  L 257.50 0.00
  Q 262.65 0.70 267.82 1.00
  Q 274.53 1.37 278.14 1.85
  Q 283.94 2.62 290.23 3.50
  C 298.87 4.72 306.82 6.73 314.84 8.98
  C 317.61 9.76 320.33 10.02 323.01 10.98
  Q 328.51 12.96 334.00 14.80
  Q 339.40 16.61 344.58 18.83
  Q 349.73 21.04 354.91 23.24
  C 358.22 24.64 361.19 26.61 364.46 28.08
  C 368.60 29.95 372.26 32.60 376.41 34.63
  C 379.98 36.37 383.04 38.96 386.48 40.81
  C 389.14 42.24 391.20 44.25 393.69 45.83
  C 398.48 48.87 402.86 52.61 407.41 55.99
  C 408.82 57.05 409.76 58.56 411.31 59.52
  Q 413.79 61.05 415.86 63.45
  C 417.36 65.18 419.48 66.03 420.92 67.84
  C 423.34 70.86 426.47 72.78 428.90 75.89
  C 430.59 78.05 432.87 79.31 434.40 81.62
  C 436.22 84.38 438.92 86.13 440.70 89.03
  C 441.50 90.32 442.82 91.32 443.78 92.51
  Q 447.06 96.58 450.72 101.42
  C 453.06 104.51 454.97 107.77 457.40 110.78
  C 458.76 112.47 459.52 114.58 460.84 116.40
  Q 463.61 120.23 465.73 124.43
  Q 466.95 126.85 468.22 128.77
  C 470.44 132.15 471.79 135.84 473.72 139.27
  Q 475.45 142.36 476.82 145.48
  Q 479.51 151.59 482.08 157.81
  Q 483.77 161.88 485.29 166.51
  Q 486.75 170.97 488.34 175.36
  C 490.09 180.20 490.96 185.43 492.43 190.58
  C 494.24 196.97 495.50 203.65 496.45 210.39
  C 497.41 217.25 498.38 223.94 498.87 230.87
  Q 499.36 237.87 500.00 244.87
  L 500.00 255.50
  Q 499.45 261.42 499.02 267.34
  Q 498.52 273.99 497.84 279.19
  Q 497.10 284.77 496.34 290.40
  Q 495.52 296.45 494.29 301.56
  Q 492.24 310.14 490.10 318.55
  C 488.84 323.50 487.02 328.07 485.51 332.72
  Q 483.70 338.25 481.63 343.18
  C 479.52 348.22 477.54 353.44 475.02 358.13
  C 472.56 362.69 470.48 367.40 467.84 371.87
  Q 466.28 374.52 464.04 378.29
  Q 455.35 392.92 443.86 407.36
  C 442.82 408.67 441.45 409.65 440.52 411.05
  Q 438.75 413.71 436.38 415.89
  C 434.58 417.55 433.56 419.73 431.62 421.21
  C 429.14 423.09 427.77 425.82 425.34 427.70
  C 422.71 429.71 420.99 432.12 418.46 434.15
  C 416.02 436.12 413.82 438.38 411.36 440.44
  Q 406.75 444.31 402.13 447.82
  Q 368.01 473.79 328.08 487.16
  Q 321.26 489.44 314.02 491.24
  Q 303.99 493.72 299.99 494.53
  Q 289.71 496.62 277.27 498.13
  Q 273.55 498.58 266.19 499.02
  Q 260.66 499.35 255.13 500.00
  L 246.50 500.00
  Q 240.10 499.23 233.67 498.91
  Q 226.32 498.56 220.82 497.86
  C 209.96 496.48 198.16 494.69 187.58 491.59
  C 184.09 490.56 180.47 489.95 177.12 488.86
  Q 157.68 482.52 145.27 476.51
  Q 138.67 473.31 131.44 469.63
  C 129.04 468.40 126.95 466.83 124.51 465.61
  Q 122.01 464.36 119.45 462.76
  Q 106.05 454.32 93.45 444.38
  C 91.97 443.20 90.68 441.82 89.20 440.72
  Q 87.50 439.45 85.90 437.98
  C 80.14 432.69 74.43 427.38 69.07 421.67
  C 65.85 418.24 62.38 414.80 59.43 411.10
  Q 57.97 409.27 56.50 407.47
  Q 50.04 399.60 42.11 388.17
  C 41.28 386.96 40.75 385.50 39.87 384.30
  Q 37.14 380.58 35.03 376.49
  C 33.50 373.53 31.66 370.84 30.12 367.90
  Q 23.81 355.92 18.55 343.31
  Q 16.36 338.06 11.11 322.70
  C 10.21 320.08 9.78 317.06 9.09 314.70
  Q 5.82 303.44 4.26 294.11
  C 2.73 285.01 1.53 275.23 0.90 265.29
  Q 0.44 257.88 0.00 250.46
  Q 0.00 250.35 0.00 250.25
  Q 0.53 242.33 0.98 234.41
  Q 1.48 225.47 2.34 218.59
  Q 3.74 207.34 5.61 199.02
  Q 7.03 192.64 8.73 185.78
  Q 10.33 179.31 12.16 173.88
  Q 14.17 167.95 16.27 162.16
  Q 19.62 152.95 24.61 142.54
  Q 25.55 140.58 26.56 138.72
  C 28.30 135.55 29.56 132.21 31.49 129.24
  Q 33.09 126.79 34.45 124.04
  C 36.37 120.17 39.02 116.84 41.24 112.89
  Q 42.62 110.41 44.46 108.32
  C 45.83 106.75 46.69 104.92 47.90 103.29
  Q 51.78 98.06 55.97 92.77
  C 57.13 91.31 58.60 90.23 59.61 88.62
  C 61.40 85.77 64.03 83.96 65.94 81.17
  C 67.40 79.04 69.61 77.86 71.17 75.77
  Q 73.02 73.28 75.47 71.39
  C 77.90 69.52 79.32 67.04 81.90 65.29
  C 84.16 63.76 85.67 61.60 87.90 60.03
  C 90.53 58.18 92.64 55.93 95.34 53.91
  C 98.67 51.42 101.79 48.77 105.31 46.50
  C 108.33 44.55 110.85 42.25 114.05 40.50
  C 117.63 38.53 120.68 35.94 124.47 34.18
  C 127.14 32.94 129.36 31.15 132.00 29.84
  Q 136.99 27.35 141.70 24.92
  Q 146.18 22.60 151.08 20.66
  Q 154.24 19.41 157.42 17.98
  Q 160.47 16.60 163.86 15.49
  Q 171.72 12.92 179.09 10.28
  C 180.08 9.92 181.27 10.03 182.30 9.74
  Q 199.84 4.85 205.25 4.11
  Q 212.79 3.08 220.32 2.05
  Q 225.30 1.37 232.21 0.98
  Q 238.18 0.64 244.12 0.00
  Z
  M 336.06 131.21
  L 336.10 120.95
  A 2.23 2.23 0.0 0 0 333.88 118.71
  L 323.10 118.67
  A 1.53 1.49 0.2 0 0 321.56 120.15
  L 321.52 131.89
  A 1.53 1.49 0.2 0 0 323.04 133.39
  L 333.82 133.43
  A 2.23 2.23 0.0 0 0 336.06 131.21
  Z
  M 358.12 146.34
  L 358.16 139.78
  A 1.94 1.94 0.0 0 0 356.23 137.83
  L 350.04 137.80
  A 2.81 2.48 0.3 0 0 347.21 140.26
  L 347.19 145.74
  A 2.81 2.48 0.3 0 0 349.98 148.24
  L 356.17 148.27
  A 1.94 1.94 0.0 0 0 358.12 146.34
  Z
  M 223.62 186.99
  Q 235.81 182.45 246.21 179.43
  Q 258.62 175.84 277.19 172.74
  C 279.34 172.38 281.42 172.27 283.55 172.13
  Q 284.32 172.08 284.29 171.32
  Q 284.11 166.00 284.30 159.59
  Q 284.48 153.70 282.61 150.83
  Q 279.43 145.95 273.62 145.95
  Q 253.43 145.95 234.45 145.96
  C 229.18 145.96 226.05 148.08 224.01 152.98
  Q 223.20 154.92 223.20 157.22
  Q 223.22 171.42 223.27 186.75
  A 0.26 0.26 0.0 0 0 223.62 186.99
  Z
  M 320.9632 153.0162
  A 1.97 1.97 0.0 0 0 318.9863 151.0531
  L 303.5264 151.1070
  A 1.97 1.97 0.0 0 0 301.5633 153.0839
  L 301.6168 168.4238
  A 1.97 1.97 0.0 0 0 303.5937 170.3869
  L 319.0536 170.3330
  A 1.97 1.97 0.0 0 0 321.0167 168.3561
  L 320.9632 153.0162
  Z
  M 192.19 223.38
  C 179.94 234.09 170.00 247.19 167.54 263.66
  C 166.00 273.98 169.07 285.67 174.03 294.38
  C 180.20 305.23 190.88 316.38 202.16 323.72
  Q 203.15 324.37 202.58 323.33
  C 201.60 321.56 199.96 320.17 198.85 318.40
  C 190.94 305.81 185.47 291.51 186.76 277.17
  Q 187.83 265.29 194.05 255.00
  Q 200.84 243.76 210.77 235.75
  Q 212.96 233.97 215.09 232.22
  Q 217.10 230.57 219.37 228.94
  C 232.56 219.49 246.59 212.69 261.73 206.61
  C 267.88 204.15 274.14 202.31 280.26 200.23
  Q 287.28 197.83 294.40 196.10
  C 302.16 194.22 309.57 192.13 317.59 190.68
  C 329.29 188.57 340.48 186.42 353.00 184.93
  Q 367.57 183.19 382.22 182.12
  Q 388.93 181.64 395.10 181.55
  A 0.30 0.28 -71.6 0 0 395.34 181.42
  Q 395.48 181.19 395.32 181.00
  Q 395.16 180.81 394.92 180.75
  Q 392.31 180.07 389.38 179.80
  Q 357.78 176.88 325.25 178.85
  C 309.44 179.82 293.59 182.14 278.52 185.29
  Q 261.00 188.95 244.26 194.73
  Q 235.42 197.79 226.23 202.08
  C 214.13 207.74 201.93 214.86 192.19 223.38
  Z
  M 283.67 213.83
  Q 278.41 215.40 275.24 216.69
  Q 253.71 225.51 235.28 236.27
  Q 229.96 239.38 224.74 243.10
  A 3.68 3.67 -17.8 0 0 223.20 246.09
  L 223.19 335.27
  A 0.64 0.64 0.0 0 0 223.95 335.90
  C 233.52 334.10 242.62 331.01 251.63 327.67
  Q 268.18 321.52 283.46 310.76
  A 1.88 1.87 72.6 0 0 284.26 309.22
  L 284.25 214.27
  Q 284.25 213.66 283.67 213.83
  Z
  M 114.08 361.60
  C 103.79 361.05 92.64 359.95 81.96 359.02
  C 77.22 358.61 72.80 357.76 68.12 357.35
  A 0.27 0.27 0.0 0 0 67.82 357.58
  L 67.76 357.92
  A 0.65 0.64 11.7 0 0 68.23 358.63
  C 75.70 360.69 82.88 363.27 90.57 365.11
  Q 100.00 367.37 109.94 369.32
  Q 125.54 372.37 149.76 374.45
  Q 168.23 376.03 193.22 375.03
  Q 202.87 374.65 213.16 373.50
  Q 230.28 371.58 238.49 369.92
  Q 246.63 368.26 257.84 365.50
  C 265.75 363.54 273.53 360.80 281.05 358.03
  C 296.60 352.31 312.58 343.50 325.16 332.20
  C 336.03 322.43 344.40 308.44 344.95 293.53
  C 345.63 275.13 334.53 258.90 321.69 246.92
  Q 320.07 245.42 320.78 247.51
  C 324.20 257.50 326.80 267.93 325.39 278.18
  Q 323.97 288.53 320.55 295.70
  Q 314.06 309.32 301.70 319.34
  Q 291.06 327.97 281.90 332.71
  C 275.95 335.78 269.75 338.87 263.45 341.29
  Q 243.91 348.82 227.42 352.71
  Q 207.97 357.31 191.74 359.20
  Q 164.43 362.39 137.54 362.52
  C 129.98 362.55 121.98 362.02 114.08 361.60
  Z"
/>
<path fill="#ffffff" d="
  M 336.06 131.21
  A 2.23 2.23 0.0 0 1 333.82 133.43
  L 323.04 133.39
  A 1.53 1.49 0.2 0 1 321.52 131.89
  L 321.56 120.15
  A 1.53 1.49 0.2 0 1 323.10 118.67
  L 333.88 118.71
  A 2.23 2.23 0.0 0 1 336.10 120.95
  L 336.06 131.21
  Z"
/>
<path fill="#ffffff" d="
  M 358.12 146.34
  A 1.94 1.94 0.0 0 1 356.17 148.27
  L 349.98 148.24
  A 2.81 2.48 0.3 0 1 347.19 145.74
  L 347.21 140.26
  A 2.81 2.48 0.3 0 1 350.04 137.80
  L 356.23 137.83
  A 1.94 1.94 0.0 0 1 358.16 139.78
  L 358.12 146.34
  Z"
/>
<path fill="#ffffff" d="
  M 223.62 186.99
  A 0.26 0.26 0.0 0 1 223.27 186.75
  Q 223.22 171.42 223.20 157.22
  Q 223.20 154.92 224.01 152.98
  C 226.05 148.08 229.18 145.96 234.45 145.96
  Q 253.43 145.95 273.62 145.95
  Q 279.43 145.95 282.61 150.83
  Q 284.48 153.70 284.30 159.59
  Q 284.11 166.00 284.29 171.32
  Q 284.32 172.08 283.55 172.13
  C 281.42 172.27 279.34 172.38 277.19 172.74
  Q 258.62 175.84 246.21 179.43
  Q 235.81 182.45 223.62 186.99
  Z"
/>
<rect fill="#ffffff" x="-9.70" y="-9.64" transform="translate(311.29,160.72) rotate(-0.2)" width="19.40" height="19.28" rx="1.97"/>
<path fill="#ffffff" d="
  M 167.54 263.66
  C 170.00 247.19 179.94 234.09 192.19 223.38
  C 201.93 214.86 214.13 207.74 226.23 202.08
  Q 235.42 197.79 244.26 194.73
  Q 261.00 188.95 278.52 185.29
  C 293.59 182.14 309.44 179.82 325.25 178.85
  Q 357.78 176.88 389.38 179.80
  Q 392.31 180.07 394.92 180.75
  Q 395.16 180.81 395.32 181.00
  Q 395.48 181.19 395.34 181.42
  A 0.30 0.28 -71.6 0 1 395.10 181.55
  Q 388.93 181.64 382.22 182.12
  Q 367.57 183.19 353.00 184.93
  C 340.48 186.42 329.29 188.57 317.59 190.68
  C 309.57 192.13 302.16 194.22 294.40 196.10
  Q 287.28 197.83 280.26 200.23
  C 274.14 202.31 267.88 204.15 261.73 206.61
  C 246.59 212.69 232.56 219.49 219.37 228.94
  Q 217.10 230.57 215.09 232.22
  Q 212.96 233.97 210.77 235.75
  Q 200.84 243.76 194.05 255.00
  Q 187.83 265.29 186.76 277.17
  C 185.47 291.51 190.94 305.81 198.85 318.40
  C 199.96 320.17 201.60 321.56 202.58 323.33
  Q 203.15 324.37 202.16 323.72
  C 190.88 316.38 180.20 305.23 174.03 294.38
  C 169.07 285.67 166.00 273.98 167.54 263.66
  Z"
/>
<path fill="#ffffff" d="
  M 283.67 213.83
  Q 284.25 213.66 284.25 214.27
  L 284.26 309.22
  A 1.88 1.87 72.6 0 1 283.46 310.76
  Q 268.18 321.52 251.63 327.67
  C 242.62 331.01 233.52 334.10 223.95 335.90
  A 0.64 0.64 0.0 0 1 223.19 335.27
  L 223.20 246.09
  A 3.68 3.67 -17.8 0 1 224.74 243.10
  Q 229.96 239.38 235.28 236.27
  Q 253.71 225.51 275.24 216.69
  Q 278.41 215.40 283.67 213.83
  Z"
/>
<path fill="#ffffff" d="
  M 114.08 361.60
  C 121.98 362.02 129.98 362.55 137.54 362.52
  Q 164.43 362.39 191.74 359.20
  Q 207.97 357.31 227.42 352.71
  Q 243.91 348.82 263.45 341.29
  C 269.75 338.87 275.95 335.78 281.90 332.71
  Q 291.06 327.97 301.70 319.34
  Q 314.06 309.32 320.55 295.70
  Q 323.97 288.53 325.39 278.18
  C 326.80 267.93 324.20 257.50 320.78 247.51
  Q 320.07 245.42 321.69 246.92
  C 334.53 258.90 345.63 275.13 344.95 293.53
  C 344.40 308.44 336.03 322.43 325.16 332.20
  C 312.58 343.50 296.60 352.31 281.05 358.03
  C 273.53 360.80 265.75 363.54 257.84 365.50
  Q 246.63 368.26 238.49 369.92
  Q 230.28 371.58 213.16 373.50
  Q 202.87 374.65 193.22 375.03
  Q 168.23 376.03 149.76 374.45
  Q 125.54 372.37 109.94 369.32
  Q 100.00 367.37 90.57 365.11
  C 82.88 363.27 75.70 360.69 68.23 358.63
  A 0.65 0.64 11.7 0 1 67.76 357.92
  L 67.82 357.58
  A 0.27 0.27 0.0 0 1 68.12 357.35
  C 72.80 357.76 77.22 358.61 81.96 359.02
  C 92.64 359.95 103.79 361.05 114.08 361.60
  Z"
/>
</svg>
