<?xml version="1.0" encoding="UTF-8" standalone="no"?>
<!DOCTYPE svg PUBLIC "-//W3C//DTD SVG 1.1//EN" "http://www.w3.org/Graphics/SVG/1.1/DTD/svg11.dtd">
<svg xmlns="http://www.w3.org/2000/svg" version="1.1" viewBox="0.00 0.00 433.00 251.00">
<rect fill="#ffffff" x="-3.54" y="-3.46" transform="translate(251.59,4.93) rotate(0.1)" width="7.08" height="6.92" rx="1.03"/>
<rect fill="#ffffff" x="-2.53" y="-2.53" transform="translate(262.76,12.91) rotate(-0.1)" width="5.06" height="5.06" rx="0.84"/>
<path fill="#ffffff" d="
  M 205.24 32.37
  Q 204.21 32.73 203.28 33.18
  Q 202.58 33.52 202.59 32.74
  Q 202.67 26.67 202.56 19.64
  C 202.50 16.45 204.64 14.05 207.90 14.03
  Q 217.45 13.96 226.07 14.07
  C 232.43 14.16 231.03 21.71 231.29 25.65
  A 0.72 0.71 -5.5 0 1 230.66 26.41
  Q 218.02 27.85 205.24 32.37
  Z"
/>
<rect fill="#ffffff" x="-4.68" y="-4.55" transform="translate(243.44,21.03) rotate(-0.2)" width="9.36" height="9.10" rx="1.08"/>
<path fill="#ffffff" d="
  M 177.91 79.02
  C 169.34 54.74 202.07 38.88 220.15 34.23
  Q 250.94 26.32 281.18 29.95
  Q 284.52 30.35 281.17 30.61
  Q 275.23 31.07 268.26 31.75
  Q 244.69 34.05 224.72 40.89
  C 209.68 46.05 188.71 56.54 186.00 73.73
  C 184.83 81.08 187.83 88.76 192.14 94.85
  Q 194.35 97.97 191.31 95.66
  C 185.65 91.35 180.25 85.65 177.91 79.02
  Z"
/>
<path fill="#ffffff" d="
  M 203.19 59.12
  C 211.61 53.34 220.92 49.04 230.54 45.41
  A 0.36 0.35 -10.3 0 1 231.02 45.74
  L 231.07 89.07
  A 2.70 2.68 -16.9 0 1 229.86 91.31
  Q 217.84 99.25 203.03 102.37
  Q 202.59 102.47 202.59 102.02
  L 202.57 60.30
  A 1.44 1.43 -17.5 0 1 203.19 59.12
  Z"
/>
<path fill="#ffffff" d="
  M 248.22 60.76
  C 260.74 71.93 263.85 87.51 250.66 99.93
  Q 241.62 108.45 227.04 113.49
  Q 209.07 119.70 187.97 120.52
  Q 157.94 121.69 130.89 112.89
  Q 130.57 112.78 130.57 112.46
  L 130.56 112.13
  A 0.27 0.27 0.0 0 1 130.87 111.86
  Q 158.04 116.09 185.26 113.19
  C 208.16 110.74 255.58 99.77 249.47 67.06
  C 249.09 64.99 248.43 63.07 247.73 61.09
  Q 247.33 59.96 248.22 60.76
  Z"
/>
<rect fill="#ffffff" x="1.78" y="148.78" width="11.22" height="57.50" rx="1.51"/>
<path fill="#ffffff" d="
  M 23.64 151.48
  C 24.98 148.45 30.39 148.55 33.15 148.88
  A 0.41 0.41 0.0 0 1 33.52 149.29
  L 33.51 205.26
  A 1.03 1.02 -90.0 0 1 32.49 206.29
  L 23.80 206.29
  A 1.17 1.17 0.0 0 1 22.63 205.12
  Q 22.61 181.71 22.61 156.50
  Q 22.61 153.82 23.64 151.48
  Z"
/>
<path fill="#ffffff" d="
  M 72.95 194.21
  A 0.74 0.74 0.0 0 0 73.37 193.54
  L 73.37 150.19
  A 1.43 1.43 0.0 0 1 74.81 148.76
  L 82.66 148.78
  A 1.59 1.59 0.0 0 1 84.25 150.37
  Q 84.25 175.48 84.20 199.39
  C 84.20 203.13 82.48 206.17 78.30 206.26
  Q 73.09 206.36 68.99 206.16
  Q 66.06 206.02 63.92 202.88
  Q 50.42 183.06 38.69 165.68
  A 2.62 2.60 28.3 0 1 38.25 164.23
  L 38.25 149.48
  A 0.55 0.54 9.9 0 1 38.98 148.97
  Q 41.49 149.89 43.00 152.11
  Q 56.85 172.57 71.18 193.71
  Q 71.87 194.72 72.95 194.21
  Z"
/>
<path fill="#ffffff" d="
  M 126.46 194.01
  L 147.53 149.79
  A 1.84 1.82 12.9 0 1 149.20 148.75
  L 158.74 148.79
  A 1.10 1.10 0.0 0 1 159.72 150.37
  Q 147.39 175.93 135.05 201.33
  C 133.60 204.31 131.25 206.31 127.74 206.34
  C 122.12 206.37 118.71 206.63 115.91 200.95
  Q 103.34 175.41 91.04 150.27
  A 1.02 1.02 0.0 0 1 91.96 148.80
  L 101.27 148.81
  A 2.02 2.02 0.0 0 1 103.09 149.95
  L 124.38 194.01
  A 1.16 1.15 44.9 0 0 126.46 194.01
  Z"
/>
<rect fill="#ffffff" x="166.26" y="148.80" width="11.12" height="57.48" rx="1.45"/>
<path fill="#ffffff" d="
  M 204.08 160.60
  C 199.05 160.66 196.40 164.19 196.40 168.93
  Q 196.37 186.27 196.34 204.59
  Q 196.34 205.24 195.73 205.02
  C 187.90 202.30 185.42 195.04 185.30 187.41
  Q 185.16 178.14 185.26 168.23
  C 185.38 155.02 191.82 148.86 204.97 148.79
  Q 217.65 148.72 231.03 148.77
  A 1.50 1.50 0.0 0 1 232.52 150.27
  L 232.52 159.03
  Q 232.52 160.55 231.01 160.54
  Q 216.35 160.45 204.08 160.60
  Z"
/>
<path fill="#ffffff" d="
  M 262.77 160.49
  L 240.80 160.52
  A 1.30 1.30 0.0 0 1 239.50 159.21
  L 239.55 150.05
  A 1.30 1.30 0.0 0 1 240.85 148.76
  L 298.55 148.78
  A 1.30 1.30 0.0 0 1 299.85 150.07
  L 299.88 159.22
  A 1.30 1.30 0.0 0 1 298.58 160.53
  L 276.57 160.47
  A 1.30 1.30 0.0 0 0 275.27 161.77
  L 275.29 204.99
  A 1.30 1.30 0.0 0 1 273.98 206.29
  L 265.39 206.26
  A 1.30 1.30 0.0 0 1 264.10 204.96
  L 264.07 161.79
  A 1.30 1.30 0.0 0 0 262.77 160.49
  Z"
/>
<path fill="#ffffff" d="
  M 367.52 196.78
  C 364.51 204.77 356.80 206.25 349.26 206.29
  Q 336.52 206.36 324.87 206.18
  C 312.68 206.00 307.64 197.90 307.61 186.52
  Q 307.55 167.60 307.56 150.28
  A 1.51 1.51 0.0 0 1 309.06 148.77
  L 317.17 148.76
  A 1.57 1.57 0.0 0 1 318.74 150.34
  Q 318.66 168.40 318.80 185.68
  Q 318.88 194.71 327.61 194.61
  Q 337.63 194.50 348.22 194.62
  C 354.30 194.69 358.09 192.90 358.16 186.12
  Q 358.34 168.81 358.23 150.33
  A 1.53 1.53 0.0 0 1 359.75 148.79
  L 367.90 148.77
  A 1.49 1.48 89.8 0 1 369.39 150.26
  Q 369.38 168.13 369.36 187.37
  Q 369.35 191.89 367.52 196.78
  Z"
/>
<path fill="#ffffff" d="
  M 420.75 192.53
  C 421.18 189.89 422.18 182.36 417.73 182.32
  Q 404.79 182.23 390.37 182.34
  C 377.03 182.43 376.74 171.57 377.27 161.26
  Q 377.82 150.29 387.75 148.90
  A 0.55 0.54 85.9 0 1 388.37 149.44
  L 388.38 168.19
  Q 388.38 172.12 392.31 172.18
  Q 404.24 172.37 418.01 172.17
  C 432.65 171.95 432.98 183.13 432.09 194.39
  C 431.33 204.02 425.56 206.44 416.85 206.36
  Q 397.82 206.17 378.51 206.30
  A 1.19 1.19 0.0 0 1 377.31 205.11
  L 377.30 196.34
  A 1.48 1.48 0.0 0 1 378.78 194.86
  Q 397.70 194.82 416.25 194.86
  Q 420.37 194.87 420.75 192.53
  Z"
/>
<rect fill="#ffffff" x="392.93" y="148.76" width="39.28" height="11.50" rx="1.18"/>
<path fill="#ffffff" d="
  M 200.93 194.74
  A 0.21 0.21 0.0 0 1 201.14 194.53
  L 244.80 194.61
  A 2.61 1.57 0.1 0 1 247.41 196.18
  L 247.39 204.76
  A 2.61 1.57 0.1 0 1 244.78 206.33
  L 201.12 206.25
  A 0.21 0.21 0.0 0 1 200.91 206.04
  L 200.93 194.74
  Z"
/>
<path fill="#ffffff" d="
  M 374.69 226.51
  Q 374.32 226.80 374.08 227.19
  Q 373.74 227.76 373.07 227.81
  Q 372.71 227.83 372.46 227.61
  Q 372.17 227.34 372.26 226.96
  Q 372.90 224.30 375.28 224.66
  C 376.18 224.79 376.89 225.64 377.72 226.03
  Q 378.17 226.24 378.56 225.94
  Q 378.96 225.63 379.24 225.17
  Q 379.50 224.75 380.00 224.71
  Q 380.32 224.69 380.57 224.89
  Q 380.92 225.18 380.85 225.64
  C 380.37 228.52 377.27 228.43 375.64 226.59
  A 0.70 0.69 -39.7 0 0 374.69 226.51
  Z"
/>
<path fill="#ffffff" d="
  M 63.69 235.71
  C 66.17 236.59 69.66 236.85 71.60 238.80
  C 73.69 240.91 72.16 244.53 69.86 245.63
  Q 65.57 247.67 59.80 245.17
  Q 59.25 244.93 59.31 244.34
  Q 59.39 243.48 59.74 242.72
  Q 60.03 242.11 60.60 242.46
  C 62.54 243.66 68.56 245.25 69.49 241.80
  A 1.52 1.52 0.0 0 0 68.32 239.91
  Q 65.24 239.28 62.27 238.21
  C 60.89 237.72 59.68 236.77 59.48 235.23
  C 58.59 228.45 66.72 228.45 70.99 230.11
  Q 71.73 230.40 71.56 231.17
  L 71.33 232.26
  A 0.71 0.71 0.0 0 1 70.34 232.76
  Q 66.57 231.03 63.61 232.22
  A 1.87 1.86 43.8 0 0 63.69 235.71
  Z"
/>
<path fill="#ffffff" d="
  M 189.89 241.25
  A 1.47 1.45 -84.4 0 0 188.90 240.03
  Q 186.66 239.29 184.26 238.76
  C 181.05 238.05 178.64 235.42 180.44 232.07
  C 182.39 228.42 187.96 228.78 191.20 230.00
  Q 192.35 230.44 192.07 231.63
  L 191.98 232.05
  A 0.93 0.93 0.0 0 1 190.72 232.70
  Q 185.74 230.66 183.66 232.66
  A 1.91 1.90 -60.9 0 0 184.58 235.89
  Q 187.52 236.53 190.28 237.58
  C 194.68 239.24 193.46 244.86 189.49 246.03
  Q 184.68 247.45 180.02 244.92
  A 0.74 0.73 27.5 0 1 179.71 243.96
  L 180.34 242.64
  Q 180.58 242.15 181.06 242.42
  Q 184.16 244.23 187.69 243.75
  C 189.00 243.57 190.06 242.71 189.89 241.25
  Z"
/>
<path fill="#ffffff" d="
  M 290.75 242.53
  L 290.76 238.48
  Q 290.76 237.73 291.52 237.72
  L 293.05 237.68
  Q 293.94 237.67 293.92 238.55
  L 293.79 243.95
  Q 293.77 244.46 293.34 244.73
  C 287.61 248.24 279.27 246.51 278.28 239.06
  C 277.10 230.17 286.74 226.85 293.20 230.90
  Q 294.24 231.55 293.51 232.53
  L 293.29 232.83
  Q 292.47 233.93 291.34 233.17
  C 287.90 230.87 282.62 231.80 281.53 236.21
  C 280.14 241.79 285.19 244.83 290.18 243.29
  Q 290.74 243.12 290.75 242.53
  Z"
/>
<path fill="#ffffff" d="
  M 26.94 232.46
  A 1.76 1.74 57.9 0 0 26.39 234.90
  Q 26.92 235.72 27.94 235.98
  Q 30.51 236.66 32.97 237.40
  C 35.78 238.25 37.05 241.19 35.49 243.71
  C 33.07 247.64 26.69 246.89 23.28 245.03
  Q 22.54 244.63 22.89 243.86
  L 23.33 242.89
  A 0.81 0.80 27.6 0 1 24.48 242.53
  C 26.26 243.61 31.14 244.92 32.71 242.64
  A 1.76 1.76 0.0 0 0 31.70 239.94
  C 28.58 239.12 22.16 238.42 23.04 233.55
  C 23.99 228.28 30.76 228.68 34.63 230.09
  Q 35.49 230.40 35.25 231.28
  L 35.03 232.06
  Q 34.79 232.97 33.89 232.68
  C 31.52 231.94 29.32 231.01 26.94 232.46
  Z"
/>
<rect fill="#ffffff" x="-1.60" y="-8.41" transform="translate(47.56,237.83) rotate(-0.1)" width="3.20" height="16.82" rx="0.54"/>
<path fill="#ffffff" d="
  M 129.40 236.33
  L 129.30 245.29
  A 1.01 0.99 -4.5 0 1 128.46 246.26
  L 127.52 246.41
  Q 126.47 246.58 126.46 245.51
  L 126.34 230.27
  Q 126.34 229.72 126.84 229.50
  Q 128.49 228.79 129.45 230.38
  Q 132.45 235.31 135.29 240.01
  A 0.40 0.40 0.0 0 0 135.97 240.01
  Q 138.77 235.31 141.61 230.32
  C 142.14 229.40 143.38 228.96 144.31 229.55
  Q 144.78 229.84 144.78 230.40
  L 144.85 245.56
  A 0.68 0.68 0.0 0 1 144.19 246.25
  L 142.83 246.29
  Q 141.84 246.31 141.84 245.33
  L 141.81 236.28
  Q 141.81 235.05 141.17 236.11
  Q 139.10 239.56 137.08 243.08
  Q 136.77 243.64 136.30 244.06
  Q 135.25 244.99 134.54 243.79
  L 130.00 236.17
  Q 129.42 235.19 129.40 236.33
  Z"
/>
<path fill="#ffffff" d="
  M 158.32 243.00
  L 157.06 246.04
  Q 157.03 246.13 156.93 246.15
  Q 155.76 246.42 153.97 246.16
  A 0.13 0.13 0.0 0 1 153.87 245.98
  L 160.84 230.51
  A 2.26 2.25 45.0 0 1 164.95 230.51
  L 171.88 245.81
  Q 172.07 246.22 171.61 246.23
  L 169.47 246.28
  Q 168.84 246.30 168.58 245.71
  L 167.36 242.91
  Q 167.13 242.37 166.55 242.37
  L 159.27 242.36
  Q 158.58 242.36 158.32 243.00
  Z
  M 159.91 239.36
  A 0.35 0.35 0.0 0 0 160.23 239.85
  L 165.55 239.83
  A 0.35 0.35 0.0 0 0 165.87 239.34
  L 163.19 233.21
  A 0.35 0.35 0.0 0 0 162.54 233.21
  L 159.91 239.36
  Z"
/>
<path fill="#ffffff" d="
  M 308.33 243.60
  L 316.89 243.63
  A 0.53 0.53 0.0 0 1 317.42 244.16
  L 317.43 245.72
  A 0.53 0.53 0.0 0 1 316.90 246.25
  L 305.27 246.26
  A 0.53 0.53 0.0 0 1 304.74 245.73
  L 304.72 230.00
  A 0.53 0.53 0.0 0 1 305.25 229.47
  L 316.63 229.42
  A 0.53 0.53 0.0 0 1 317.16 229.96
  L 317.14 231.61
  A 0.53 0.53 0.0 0 1 316.60 232.13
  L 308.39 232.00
  A 0.53 0.53 0.0 0 0 307.85 232.54
  L 307.91 235.90
  A 0.53 0.53 0.0 0 0 308.44 236.42
  L 315.64 236.40
  A 0.53 0.53 0.0 0 1 316.17 236.95
  L 316.13 238.57
  A 0.53 0.53 0.0 0 1 315.59 239.08
  L 308.48 238.96
  A 0.53 0.53 0.0 0 0 307.94 239.47
  L 307.80 243.05
  A 0.53 0.53 0.0 0 0 308.33 243.60
  Z"
/>
<path fill="#ffffff" d="
  M 336.40 242.62
  Q 337.13 240.43 334.83 239.80
  C 331.94 239.01 325.70 238.18 326.63 233.57
  C 327.71 228.20 334.62 228.66 338.42 230.16
  Q 339.36 230.53 338.94 231.45
  L 338.64 232.10
  Q 338.18 233.10 337.19 232.63
  Q 334.30 231.27 331.09 232.02
  A 1.70 1.70 0.0 0 0 329.80 233.37
  Q 329.47 235.09 330.99 235.68
  C 334.24 236.93 341.64 237.37 339.35 243.16
  C 337.51 247.82 330.37 246.81 326.85 245.01
  Q 326.47 244.82 326.49 244.39
  Q 326.55 243.45 327.03 242.66
  Q 327.32 242.18 327.81 242.46
  Q 331.44 244.55 335.53 243.44
  A 1.24 1.24 0.0 0 0 336.40 242.62
  Z"
/>
<path fill="#ffffff" d="
  M 352.22 232.09
  L 347.69 232.11
  A 0.55 0.55 0.0 0 1 347.14 231.57
  L 347.12 230.00
  A 0.55 0.55 0.0 0 1 347.67 229.44
  L 360.94 229.42
  A 0.55 0.55 0.0 0 1 361.49 229.97
  L 361.50 231.60
  A 0.55 0.55 0.0 0 1 360.94 232.16
  L 356.50 232.12
  A 0.55 0.55 0.0 0 0 355.94 232.68
  L 355.97 245.67
  A 0.55 0.55 0.0 0 1 355.44 246.22
  L 353.30 246.31
  A 0.55 0.55 0.0 0 1 352.73 245.76
  L 352.77 232.64
  A 0.55 0.55 0.0 0 0 352.22 232.09
  Z"
/>
<path fill="#ffffff" d="
  M 381.23 243.21
  A 1.35 1.35 0.0 0 0 379.95 242.33
  L 372.75 242.40
  Q 372.13 242.40 371.93 242.99
  L 371.01 245.70
  Q 370.84 246.21 370.30 246.23
  L 368.02 246.29
  Q 367.38 246.31 367.64 245.72
  L 374.47 230.54
  A 2.29 2.28 -45.1 0 1 378.63 230.53
  L 385.51 245.78
  Q 385.72 246.25 385.21 246.25
  L 383.16 246.28
  Q 382.37 246.29 382.10 245.54
  L 381.23 243.21
  Z
  M 373.59 239.20
  A 0.50 0.50 0.0 0 0 374.04 239.90
  L 378.99 239.91
  A 0.50 0.50 0.0 0 0 379.45 239.21
  L 376.98 233.60
  A 0.50 0.50 0.0 0 0 376.07 233.60
  L 373.59 239.20
  Z"
/>
<path fill="#ffffff" d="
  M 411.4293 237.7181
  A 9.16 8.74 -0.7 0 1 402.3768 246.5693
  A 9.16 8.74 -0.7 0 1 393.1107 237.9419
  A 9.16 8.74 -0.7 0 1 402.1632 229.0907
  A 9.16 8.74 -0.7 0 1 411.4293 237.7181
  Z
  M 408.26 237.83
  A 5.98 5.98 0.0 0 0 402.28 231.85
  A 5.98 5.98 0.0 0 0 396.30 237.83
  A 5.98 5.98 0.0 0 0 402.28 243.81
  A 5.98 5.98 0.0 0 0 408.26 237.83
  Z"
/>
<path fill="#ffffff" d="
  M 88.65 232.42
  L 88.66 245.85
  A 0.38 0.38 0.0 0 1 88.30 246.23
  L 85.98 246.33
  A 0.38 0.38 0.0 0 1 85.58 245.95
  L 85.57 232.42
  A 0.38 0.38 0.0 0 0 85.18 232.04
  L 80.25 232.14
  A 0.38 0.38 0.0 0 1 79.86 231.75
  L 79.92 229.84
  A 0.38 0.38 0.0 0 1 80.30 229.47
  L 93.91 229.47
  A 0.38 0.38 0.0 0 1 94.29 229.85
  L 94.27 231.79
  A 0.38 0.38 0.0 0 1 93.88 232.17
  L 89.04 232.04
  A 0.38 0.38 0.0 0 0 88.65 232.42
  Z"
/>
<path fill="#ffffff" d="
  M 106.55 239.40
  L 106.46 243.25
  A 0.45 0.45 0.0 0 0 106.90 243.71
  L 115.69 243.86
  A 0.45 0.45 0.0 0 1 116.13 244.32
  L 116.10 245.63
  A 0.45 0.45 0.0 0 1 115.66 246.07
  L 103.97 246.24
  A 0.45 0.45 0.0 0 1 103.51 245.79
  L 103.49 230.03
  A 0.45 0.45 0.0 0 1 103.95 229.58
  L 115.24 229.70
  A 0.45 0.45 0.0 0 1 115.68 230.20
  L 115.53 231.56
  A 0.45 0.45 0.0 0 1 115.09 231.96
  L 106.93 231.98
  A 0.45 0.45 0.0 0 0 106.48 232.43
  L 106.47 236.10
  A 0.45 0.45 0.0 0 0 106.91 236.55
  L 114.12 236.65
  A 0.45 0.45 0.0 0 1 114.56 237.05
  L 114.70 238.25
  A 0.45 0.45 0.0 0 1 114.27 238.75
  L 106.99 238.96
  A 0.45 0.45 0.0 0 0 106.55 239.40
  Z"
/>
<path fill="#ffffff" d="
  M 216.37 230.00
  A 0.55 0.55 0.0 0 1 216.92 229.45
  L 224.37 229.44
  A 8.58 8.16 -0.1 0 1 232.96 237.59
  L 232.96 238.07
  A 8.58 8.16 -0.1 0 1 224.39 246.24
  L 216.94 246.25
  A 0.55 0.55 0.0 0 1 216.39 245.70
  L 216.37 230.00
  Z
  M 219.49 232.50
  L 219.49 243.22
  A 0.42 0.42 0.0 0 0 219.91 243.64
  L 223.96 243.64
  A 5.79 5.53 0.0 0 0 229.75 238.11
  L 229.75 237.61
  A 5.79 5.53 0.0 0 0 223.96 232.08
  L 219.91 232.08
  A 0.42 0.42 0.0 0 0 219.49 232.50
  Z"
/>
<path fill="#ffffff" d="
  M 246.21 239.49
  L 246.11 243.12
  A 0.52 0.52 0.0 0 0 246.62 243.65
  L 255.16 243.81
  A 0.52 0.52 0.0 0 1 255.67 244.37
  L 255.58 245.59
  A 0.52 0.52 0.0 0 1 255.06 246.07
  L 243.58 246.23
  A 0.52 0.52 0.0 0 1 243.05 245.71
  L 243.00 229.97
  A 0.52 0.52 0.0 0 1 243.53 229.45
  L 254.70 229.67
  A 0.52 0.52 0.0 0 1 255.21 230.21
  L 255.18 231.44
  A 0.52 0.52 0.0 0 1 254.66 231.95
  L 246.76 232.07
  A 0.52 0.52 0.0 0 0 246.25 232.58
  L 246.18 235.88
  A 0.52 0.52 0.0 0 0 246.68 236.41
  L 253.84 236.63
  A 0.52 0.52 0.0 0 1 254.35 237.17
  L 254.31 238.35
  A 0.52 0.52 0.0 0 1 253.80 238.86
  L 246.72 238.98
  A 0.52 0.52 0.0 0 0 246.21 239.49
  Z"
/>
</svg>
