<?xml version="1.0" encoding="UTF-8" standalone="no"?>
<!DOCTYPE svg PUBLIC "-//W3C//DTD SVG 1.1//EN" "http://www.w3.org/Graphics/SVG/1.1/DTD/svg11.dtd">
<svg xmlns="http://www.w3.org/2000/svg" version="1.1" viewBox="0.00 0.00 1920.00 1080.00">
<g stroke-width="2.00" fill="none" stroke-linecap="butt">
<path stroke="#824e99" vector-effect="non-scaling-stroke" d="
  M 709.43 1080.00
  Q 722.19 1066.18 733.84 1051.34
  Q 747.22 1034.30 760.45 1016.08
  Q 782.38 985.89 799.48 952.86
  Q 815.42 922.06 826.18 889.71
  Q 831.81 872.80 835.04 857.19
  Q 843.34 817.01 836.25 778.58
  Q 825.76 721.78 780.31 686.22
  C 747.45 660.51 707.67 647.58 667.02 640.56
  Q 665.60 640.31 664.67 641.25
  A 0.60 0.59 -49.6 0 0 664.74 642.16
  C 665.73 642.90 666.54 643.93 667.54 644.68
  Q 685.44 658.21 701.42 673.97
  Q 726.43 698.64 739.32 728.87
  Q 747.81 748.80 751.23 764.00
  Q 754.98 780.64 755.50 799.23
  Q 756.40 831.22 749.05 859.99
  Q 741.80 888.36 729.81 916.79
  Q 722.94 933.09 714.80 947.81
  Q 705.62 964.40 695.48 981.00
  Q 690.05 989.89 684.44 998.01
  Q 656.48 1038.48 624.14 1076.43
  Q 623.00 1077.76 621.61 1078.94
  A 0.48 0.47 45.3 0 0 621.61 1079.67
  L 621.99 1080.00"
/>
<path stroke="#824e99" vector-effect="non-scaling-stroke" d="
  M 438.56 293.74
  L 459.87 326.16
  A 4.86 4.86 0.0 0 0 466.60 327.56
  L 495.60 308.51
  A 8.38 8.25 -33.3 0 0 498.07 297.01
  L 480.49 270.25
  A 8.38 8.25 -33.3 0 0 468.96 267.95
  L 439.96 287.01
  A 4.86 4.86 0.0 0 0 438.56 293.74"
/>
<path stroke="#824e99" vector-effect="non-scaling-stroke" d="
  M 586.13 299.18
  L 574.71 281.52
  A 6.79 6.79 0.0 0 0 565.32 279.50
  L 548.84 290.16
  A 9.75 8.89 -32.9 0 0 545.49 302.92
  L 554.63 317.06
  A 9.75 8.89 -32.9 0 0 567.65 319.23
  L 584.12 308.57
  A 6.79 6.79 0.0 0 0 586.13 299.18"
/>
<path stroke="#824e99" vector-effect="non-scaling-stroke" d="
  M 629.64 425.24
  Q 675.01 385.91 723.40 349.07
  Q 730.18 343.91 736.76 339.26
  Q 743.83 334.27 750.99 329.09
  Q 752.73 327.84 750.73 327.07
  Q 749.60 326.63 748.25 327.16
  Q 739.05 330.81 729.65 335.91
  Q 701.80 350.99 678.78 364.81
  Q 671.58 369.13 664.92 373.15
  Q 657.63 377.55 651.27 381.63
  Q 631.80 394.13 611.81 407.20
  C 610.32 408.17 609.11 409.43 607.64 410.39
  Q 592.84 420.08 576.98 431.71
  Q 569.74 437.03 562.41 442.41
  Q 547.50 453.39 533.42 464.68
  Q 464.76 519.71 406.05 584.82
  Q 399.49 592.10 392.79 599.97
  Q 373.68 622.41 358.82 642.17
  Q 325.20 686.87 299.64 737.91
  Q 285.72 765.71 276.13 794.32
  C 266.89 821.90 260.92 850.85 259.86 879.78
  Q 258.76 910.02 266.53 939.00
  Q 270.36 953.29 277.38 967.81
  Q 280.34 973.96 284.05 979.64
  Q 289.19 987.52 291.89 990.91
  Q 319.51 1025.61 360.94 1043.60
  Q 377.86 1050.95 395.74 1056.00
  Q 438.75 1068.16 481.57 1067.79
  Q 482.28 1067.79 482.06 1067.11
  Q 481.81 1066.35 481.02 1066.00
  C 474.64 1063.14 466.89 1061.60 461.09 1058.93
  C 423.87 1041.84 390.41 1019.74 366.83 988.40
  C 348.48 964.03 336.77 934.13 334.18 903.34
  Q 330.47 859.32 342.82 816.82
  C 346.38 804.56 350.98 789.41 355.96 776.48
  Q 370.64 738.39 391.25 702.36
  Q 411.86 666.31 435.96 632.65
  Q 441.45 624.99 447.84 616.82
  Q 463.72 596.52 477.98 578.74
  Q 488.97 565.04 507.74 544.49
  Q 527.42 522.94 540.74 509.26
  Q 553.57 496.09 566.87 483.38
  Q 584.38 466.64 602.11 450.13
  Q 618.07 435.28 629.64 425.24"
/>
<path stroke="#824e99" vector-effect="non-scaling-stroke" d="
  M 496.5369 385.0186
  A 6.69 6.69 0.0 0 0 487.2560 383.1810
  L 445.2747 411.2850
  A 6.69 6.69 0.0 0 0 443.4370 420.5659
  L 471.3631 462.2814
  A 6.69 6.69 0.0 0 0 480.6440 464.1190
  L 522.6253 436.0150
  A 6.69 6.69 0.0 0 0 524.4630 426.7341
  L 496.5369 385.0186"
/>
<path stroke="#824e99" vector-effect="non-scaling-stroke" d="
  M 391.74 537.67
  Q 393.09 536.72 395.40 534.44
  Q 405.31 524.66 412.58 518.08
  Q 419.56 511.76 427.13 506.41
  Q 428.72 505.29 429.73 503.62
  A 1.52 1.52 0.0 0 0 429.67 501.94
  C 423.69 493.59 418.79 486.41 413.00 477.06
  C 408.61 469.98 404.45 463.02 398.63 456.72
  C 386.55 443.62 368.47 441.58 353.62 451.39
  Q 300.61 486.40 247.21 521.71
  C 238.10 527.73 230.99 535.76 229.92 547.01
  Q 229.11 555.45 231.71 564.28
  Q 233.03 568.77 238.65 577.21
  Q 263.96 615.28 289.72 654.15
  A 1.10 1.10 0.0 0 0 291.52 654.18
  Q 314.71 622.22 339.62 592.72
  Q 345.89 585.30 352.86 577.74
  Q 365.86 563.64 379.31 549.95
  Q 381.32 547.90 390.45 539.22
  Q 390.86 538.82 391.15 538.32
  Q 391.37 537.93 391.74 537.67"
/>
<path stroke="#824e99" vector-effect="non-scaling-stroke" d="
  M 628.51 981.00
  C 648.81 951.88 665.31 920.44 678.59 887.22
  C 679.61 884.67 680.61 881.89 678.92 879.33
  Q 593.52 750.10 508.12 620.89
  Q 507.12 619.38 505.96 618.38
  Q 505.50 617.98 505.09 618.42
  Q 503.85 619.74 502.65 621.18
  Q 493.92 631.61 489.37 638.11
  Q 468.93 667.24 447.07 704.19
  Q 423.70 743.69 405.77 782.37
  Q 400.49 793.77 396.20 805.30
  Q 393.78 811.80 397.21 817.01
  Q 478.06 939.33 558.95 1061.74
  Q 559.67 1062.82 560.78 1062.18
  Q 562.38 1061.25 563.63 1060.02
  Q 575.94 1047.82 587.27 1034.51
  Q 609.09 1008.86 628.51 981.00"
/>
</g>
<path fill="#743a8d" d="
  M 0.00 0.00
  L 1920.00 0.00
  L 1920.00 1080.00
  L 709.43 1080.00
  Q 722.19 1066.18 733.84 1051.34
  Q 747.22 1034.30 760.45 1016.08
  Q 782.38 985.89 799.48 952.86
  Q 815.42 922.06 826.18 889.71
  Q 831.81 872.80 835.04 857.19
  Q 843.34 817.01 836.25 778.58
  Q 825.76 721.78 780.31 686.22
  C 747.45 660.51 707.67 647.58 667.02 640.56
  Q 665.60 640.31 664.67 641.25
  A 0.60 0.59 -49.6 0 0 664.74 642.16
  C 665.73 642.90 666.54 643.93 667.54 644.68
  Q 685.44 658.21 701.42 673.97
  Q 726.43 698.64 739.32 728.87
  Q 747.81 748.80 751.23 764.00
  Q 754.98 780.64 755.50 799.23
  Q 756.40 831.22 749.05 859.99
  Q 741.80 888.36 729.81 916.79
  Q 722.94 933.09 714.80 947.81
  Q 705.62 964.40 695.48 981.00
  Q 690.05 989.89 684.44 998.01
  Q 656.48 1038.48 624.14 1076.43
  Q 623.00 1077.76 621.61 1078.94
  A 0.48 0.47 45.3 0 0 621.61 1079.67
  L 621.99 1080.00
  L 0.00 1080.00
  L 0.00 0.00
  Z
  M 438.56 293.74
  L 459.87 326.16
  A 4.86 4.86 0.0 0 0 466.60 327.56
  L 495.60 308.51
  A 8.38 8.25 -33.3 0 0 498.07 297.01
  L 480.49 270.25
  A 8.38 8.25 -33.3 0 0 468.96 267.95
  L 439.96 287.01
  A 4.86 4.86 0.0 0 0 438.56 293.74
  Z
  M 586.13 299.18
  L 574.71 281.52
  A 6.79 6.79 0.0 0 0 565.32 279.50
  L 548.84 290.16
  A 9.75 8.89 -32.9 0 0 545.49 302.92
  L 554.63 317.06
  A 9.75 8.89 -32.9 0 0 567.65 319.23
  L 584.12 308.57
  A 6.79 6.79 0.0 0 0 586.13 299.18
  Z
  M 629.64 425.24
  Q 675.01 385.91 723.40 349.07
  Q 730.18 343.91 736.76 339.26
  Q 743.83 334.27 750.99 329.09
  Q 752.73 327.84 750.73 327.07
  Q 749.60 326.63 748.25 327.16
  Q 739.05 330.81 729.65 335.91
  Q 701.80 350.99 678.78 364.81
  Q 671.58 369.13 664.92 373.15
  Q 657.63 377.55 651.27 381.63
  Q 631.80 394.13 611.81 407.20
  C 610.32 408.17 609.11 409.43 607.64 410.39
  Q 592.84 420.08 576.98 431.71
  Q 569.74 437.03 562.41 442.41
  Q 547.50 453.39 533.42 464.68
  Q 464.76 519.71 406.05 584.82
  Q 399.49 592.10 392.79 599.97
  Q 373.68 622.41 358.82 642.17
  Q 325.20 686.87 299.64 737.91
  Q 285.72 765.71 276.13 794.32
  C 266.89 821.90 260.92 850.85 259.86 879.78
  Q 258.76 910.02 266.53 939.00
  Q 270.36 953.29 277.38 967.81
  Q 280.34 973.96 284.05 979.64
  Q 289.19 987.52 291.89 990.91
  Q 319.51 1025.61 360.94 1043.60
  Q 377.86 1050.95 395.74 1056.00
  Q 438.75 1068.16 481.57 1067.79
  Q 482.28 1067.79 482.06 1067.11
  Q 481.81 1066.35 481.02 1066.00
  C 474.64 1063.14 466.89 1061.60 461.09 1058.93
  C 423.87 1041.84 390.41 1019.74 366.83 988.40
  C 348.48 964.03 336.77 934.13 334.18 903.34
  Q 330.47 859.32 342.82 816.82
  C 346.38 804.56 350.98 789.41 355.96 776.48
  Q 370.64 738.39 391.25 702.36
  Q 411.86 666.31 435.96 632.65
  Q 441.45 624.99 447.84 616.82
  Q 463.72 596.52 477.98 578.74
  Q 488.97 565.04 507.74 544.49
  Q 527.42 522.94 540.74 509.26
  Q 553.57 496.09 566.87 483.38
  Q 584.38 466.64 602.11 450.13
  Q 618.07 435.28 629.64 425.24
  Z
  M 496.5369 385.0186
  A 6.69 6.69 0.0 0 0 487.2560 383.1810
  L 445.2747 411.2850
  A 6.69 6.69 0.0 0 0 443.4370 420.5659
  L 471.3631 462.2814
  A 6.69 6.69 0.0 0 0 480.6440 464.1190
  L 522.6253 436.0150
  A 6.69 6.69 0.0 0 0 524.4630 426.7341
  L 496.5369 385.0186
  Z
  M 391.74 537.67
  Q 393.09 536.72 395.40 534.44
  Q 405.31 524.66 412.58 518.08
  Q 419.56 511.76 427.13 506.41
  Q 428.72 505.29 429.73 503.62
  A 1.52 1.52 0.0 0 0 429.67 501.94
  C 423.69 493.59 418.79 486.41 413.00 477.06
  C 408.61 469.98 404.45 463.02 398.63 456.72
  C 386.55 443.62 368.47 441.58 353.62 451.39
  Q 300.61 486.40 247.21 521.71
  C 238.10 527.73 230.99 535.76 229.92 547.01
  Q 229.11 555.45 231.71 564.28
  Q 233.03 568.77 238.65 577.21
  Q 263.96 615.28 289.72 654.15
  A 1.10 1.10 0.0 0 0 291.52 654.18
  Q 314.71 622.22 339.62 592.72
  Q 345.89 585.30 352.86 577.74
  Q 365.86 563.64 379.31 549.95
  Q 381.32 547.90 390.45 539.22
  Q 390.86 538.82 391.15 538.32
  Q 391.37 537.93 391.74 537.67
  Z
  M 628.51 981.00
  C 648.81 951.88 665.31 920.44 678.59 887.22
  C 679.61 884.67 680.61 881.89 678.92 879.33
  Q 593.52 750.10 508.12 620.89
  Q 507.12 619.38 505.96 618.38
  Q 505.50 617.98 505.09 618.42
  Q 503.85 619.74 502.65 621.18
  Q 493.92 631.61 489.37 638.11
  Q 468.93 667.24 447.07 704.19
  Q 423.70 743.69 405.77 782.37
  Q 400.49 793.77 396.20 805.30
  Q 393.78 811.80 397.21 817.01
  Q 478.06 939.33 558.95 1061.74
  Q 559.67 1062.82 560.78 1062.18
  Q 562.38 1061.25 563.63 1060.02
  Q 575.94 1047.82 587.27 1034.51
  Q 609.09 1008.86 628.51 981.00
  Z"
/>
<path fill="#9061a5" d="
  M 438.56 293.74
  A 4.86 4.86 0.0 0 1 439.96 287.01
  L 468.96 267.95
  A 8.38 8.25 -33.3 0 1 480.49 270.25
  L 498.07 297.01
  A 8.38 8.25 -33.3 0 1 495.60 308.51
  L 466.60 327.56
  A 4.86 4.86 0.0 0 1 459.87 326.16
  L 438.56 293.74
  Z"
/>
<path fill="#9061a5" d="
  M 586.13 299.18
  A 6.79 6.79 0.0 0 1 584.12 308.57
  L 567.65 319.23
  A 9.75 8.89 -32.9 0 1 554.63 317.06
  L 545.49 302.92
  A 9.75 8.89 -32.9 0 1 548.84 290.16
  L 565.32 279.50
  A 6.79 6.79 0.0 0 1 574.71 281.52
  L 586.13 299.18
  Z"
/>
<path fill="#9061a5" d="
  M 629.64 425.24
  Q 618.07 435.28 602.11 450.13
  Q 584.38 466.64 566.87 483.38
  Q 553.57 496.09 540.74 509.26
  Q 527.42 522.94 507.74 544.49
  Q 488.97 565.04 477.98 578.74
  Q 463.72 596.52 447.84 616.82
  Q 441.45 624.99 435.96 632.65
  Q 411.86 666.31 391.25 702.36
  Q 370.64 738.39 355.96 776.48
  C 350.98 789.41 346.38 804.56 342.82 816.82
  Q 330.47 859.32 334.18 903.34
  C 336.77 934.13 348.48 964.03 366.83 988.40
  C 390.41 1019.74 423.87 1041.84 461.09 1058.93
  C 466.89 1061.60 474.64 1063.14 481.02 1066.00
  Q 481.81 1066.35 482.06 1067.11
  Q 482.28 1067.79 481.57 1067.79
  Q 438.75 1068.16 395.74 1056.00
  Q 377.86 1050.95 360.94 1043.60
  Q 319.51 1025.61 291.89 990.91
  Q 289.19 987.52 284.05 979.64
  Q 280.34 973.96 277.38 967.81
  Q 270.36 953.29 266.53 939.00
  Q 258.76 910.02 259.86 879.78
  C 260.92 850.85 266.89 821.90 276.13 794.32
  Q 285.72 765.71 299.64 737.91
  Q 325.20 686.87 358.82 642.17
  Q 373.68 622.41 392.79 599.97
  Q 399.49 592.10 406.05 584.82
  Q 464.76 519.71 533.42 464.68
  Q 547.50 453.39 562.41 442.41
  Q 569.74 437.03 576.98 431.71
  Q 592.84 420.08 607.64 410.39
  C 609.11 409.43 610.32 408.17 611.81 407.20
  Q 631.80 394.13 651.27 381.63
  Q 657.63 377.55 664.92 373.15
  Q 671.58 369.13 678.78 364.81
  Q 701.80 350.99 729.65 335.91
  Q 739.05 330.81 748.25 327.16
  Q 749.60 326.63 750.73 327.07
  Q 752.73 327.84 750.99 329.09
  Q 743.83 334.27 736.76 339.26
  Q 730.18 343.91 723.40 349.07
  Q 675.01 385.91 629.64 425.24
  Z"
/>
<rect fill="#9061a5" x="-31.95" y="-31.79" transform="translate(483.95,423.65) rotate(-33.8)" width="63.90" height="63.58" rx="6.69"/>
<path fill="#9061a5" d="
  M 391.15 538.32
  Q 390.86 538.82 390.45 539.22
  Q 381.32 547.90 379.31 549.95
  Q 365.86 563.64 352.86 577.74
  Q 345.89 585.30 339.62 592.72
  Q 314.71 622.22 291.52 654.18
  A 1.10 1.10 0.0 0 1 289.72 654.15
  Q 263.96 615.28 238.65 577.21
  Q 233.03 568.77 231.71 564.28
  Q 229.11 555.45 229.92 547.01
  C 230.99 535.76 238.10 527.73 247.21 521.71
  Q 300.61 486.40 353.62 451.39
  C 368.47 441.58 386.55 443.62 398.63 456.72
  C 404.45 463.02 408.61 469.98 413.00 477.06
  C 418.79 486.41 423.69 493.59 429.67 501.94
  A 1.52 1.52 0.0 0 1 429.73 503.62
  Q 428.72 505.29 427.13 506.41
  Q 419.56 511.76 412.58 518.08
  Q 405.31 524.66 395.40 534.44
  Q 393.09 536.72 391.74 537.67
  Q 391.37 537.93 391.15 538.32
  Z"
/>
<path fill="#9061a5" d="
  M 678.59 887.22
  C 665.31 920.44 648.81 951.88 628.51 981.00
  Q 609.09 1008.86 587.27 1034.51
  Q 575.94 1047.82 563.63 1060.02
  Q 562.38 1061.25 560.78 1062.18
  Q 559.67 1062.82 558.95 1061.74
  Q 478.06 939.33 397.21 817.01
  Q 393.78 811.80 396.20 805.30
  Q 400.49 793.77 405.77 782.37
  Q 423.70 743.69 447.07 704.19
  Q 468.93 667.24 489.37 638.11
  Q 493.92 631.61 502.65 621.18
  Q 503.85 619.74 505.09 618.42
  Q 505.50 617.98 505.96 618.38
  Q 507.12 619.38 508.12 620.89
  Q 593.52 750.10 678.92 879.33
  C 680.61 881.89 679.61 884.67 678.59 887.22
  Z"
/>
<path fill="#9061a5" d="
  M 709.43 1080.00
  L 621.99 1080.00
  L 621.61 1079.67
  A 0.48 0.47 45.3 0 1 621.61 1078.94
  Q 623.00 1077.76 624.14 1076.43
  Q 656.48 1038.48 684.44 998.01
  Q 690.05 989.89 695.48 981.00
  Q 705.62 964.40 714.80 947.81
  Q 722.94 933.09 729.81 916.79
  Q 741.80 888.36 749.05 859.99
  Q 756.40 831.22 755.50 799.23
  Q 754.98 780.64 751.23 764.00
  Q 747.81 748.80 739.32 728.87
  Q 726.43 698.64 701.42 673.97
  Q 685.44 658.21 667.54 644.68
  C 666.54 643.93 665.73 642.90 664.74 642.16
  A 0.60 0.59 -49.6 0 1 664.67 641.25
  Q 665.60 640.31 667.02 640.56
  C 707.67 647.58 747.45 660.51 780.31 686.22
  Q 825.76 721.78 836.25 778.58
  Q 843.34 817.01 835.04 857.19
  Q 831.81 872.80 826.18 889.71
  Q 815.42 922.06 799.48 952.86
  Q 782.38 985.89 760.45 1016.08
  Q 747.22 1034.30 733.84 1051.34
  Q 722.19 1066.18 709.43 1080.00
  Z"
/>
</svg>
