<?xml version="1.0" encoding="UTF-8" standalone="no"?>
<!DOCTYPE svg PUBLIC "-//W3C//DTD SVG 1.1//EN" "http://www.w3.org/Graphics/SVG/1.1/DTD/svg11.dtd">
<svg xmlns="http://www.w3.org/2000/svg" version="1.1" viewBox="0.00 0.00 558.00 155.00">
<g stroke-width="2.00" fill="none" stroke-linecap="butt">
<path stroke="#fee585" vector-effect="non-scaling-stroke" d="
  M 321.35 12.69
  Q 323.00 12.15 324.71 12.19
  Q 338.33 12.50 349.43 12.37
  Q 351.01 12.35 352.50 11.53
  Q 353.04 11.23 352.60 10.80
  Q 351.65 9.89 350.28 9.86
  Q 344.62 9.74 339.51 9.16
  Q 334.34 8.57 328.61 8.38
  C 314.23 7.90 299.18 6.83 285.01 6.56
  C 274.44 6.35 263.36 5.87 252.57 6.16
  Q 247.22 6.31 241.75 6.46
  C 233.72 6.68 225.72 7.67 217.86 8.48
  Q 214.45 8.83 210.69 9.50
  C 203.92 10.70 197.29 11.67 190.78 14.11
  Q 172.12 21.08 156.65 31.29
  Q 153.12 33.63 149.54 34.83
  C 144.40 36.55 139.04 36.35 133.72 37.27
  Q 127.51 38.34 122.43 38.34
  Q 119.23 38.34 115.99 39.13
  Q 112.48 39.99 108.48 39.65
  C 106.64 39.49 104.60 40.37 102.68 40.44
  Q 98.61 40.59 94.05 41.34
  C 91.88 41.70 89.67 41.40 87.54 42.06
  Q 83.60 43.28 79.10 43.40
  Q 75.30 43.50 71.59 44.26
  Q 63.07 45.98 54.43 48.02
  Q 51.33 48.75 48.19 49.80
  Q 45.03 50.86 42.06 51.82
  Q 39.32 52.69 36.65 53.96
  Q 33.96 55.24 31.50 56.50
  Q 27.33 58.65 22.71 62.16
  Q 18.42 65.42 15.68 69.21
  Q 12.16 74.10 10.12 79.66
  C 7.18 87.66 7.31 97.09 9.01 105.13
  Q 11.22 115.52 14.40 125.99
  A 2.52 2.50 83.7 0 0 16.61 127.77
  C 20.00 128.04 23.16 129.08 26.47 129.64
  Q 62.61 135.78 93.88 137.61
  Q 102.16 138.10 106.57 138.48
  C 110.54 138.82 114.40 138.69 118.41 139.09
  A 0.75 0.75 0.0 0 0 119.23 138.30
  Q 119.22 138.06 119.07 137.86
  C 110.36 126.10 101.26 114.08 90.54 104.34
  C 83.17 97.64 75.33 92.29 64.98 91.86
  Q 42.57 90.95 20.98 90.24
  C 18.81 90.17 16.52 90.33 16.63 87.52
  C 17.17 73.00 29.58 63.75 41.52 58.24
  C 52.17 53.33 64.33 50.18 75.73 48.00
  Q 76.02 47.95 76.09 48.23
  L 76.17 48.50
  Q 76.20 48.63 76.08 48.66
  Q 64.32 52.48 54.93 57.27
  Q 52.79 58.36 50.68 59.80
  Q 49.03 60.93 50.93 60.32
  Q 65.86 55.52 82.46 50.93
  Q 95.02 47.45 114.34 44.42
  Q 124.10 42.88 134.19 41.88
  Q 149.52 40.36 156.44 40.07
  Q 170.60 39.47 184.49 38.66
  A 0.62 0.61 74.1 0 0 184.99 37.75
  Q 184.58 37.01 183.50 36.88
  Q 175.05 35.84 166.64 35.02
  A 0.53 0.53 0.0 0 1 166.28 34.16
  Q 167.17 33.07 168.21 32.21
  C 177.93 24.20 189.03 19.11 201.05 15.88
  Q 211.20 13.16 222.54 11.80
  Q 249.03 8.62 273.32 10.44
  Q 277.58 10.76 282.25 10.83
  Q 285.45 10.88 285.26 13.88
  Q 284.90 19.35 283.19 25.31
  Q 282.88 26.40 283.12 27.45
  Q 283.34 28.36 283.75 27.52
  Q 286.56 21.82 289.34 16.90
  C 291.87 12.45 295.37 11.13 300.59 12.22
  Q 317.27 15.73 328.90 21.85
  Q 337.58 26.42 341.05 28.17
  C 343.03 29.17 343.95 30.30 344.66 32.27
  C 347.08 38.96 342.88 43.95 336.24 44.58
  Q 327.45 45.43 320.68 47.41
  Q 316.68 48.58 320.85 48.78
  Q 333.71 49.38 345.76 49.79
  Q 361.12 50.31 368.59 49.13
  Q 376.32 47.90 384.45 45.02
  A 0.59 0.59 0.0 0 0 384.80 44.23
  Q 384.54 43.64 383.87 43.68
  Q 376.82 44.05 370.67 43.91
  C 367.90 43.84 363.18 43.50 361.15 41.31
  Q 359.78 39.84 358.98 38.07
  A 1.08 1.08 0.0 0 1 359.97 36.54
  Q 368.66 36.68 376.78 35.63
  Q 376.87 35.62 376.81 35.56
  Q 376.77 35.52 376.74 35.47
  Q 376.61 35.27 376.42 35.26
  Q 364.62 34.45 354.33 32.89
  Q 351.58 32.47 348.49 29.82
  C 345.14 26.94 341.13 25.22 337.61 22.59
  C 336.49 21.75 335.17 21.35 333.94 20.70
  Q 330.94 19.12 334.32 19.29
  C 336.38 19.39 338.26 18.83 340.25 18.66
  Q 347.15 18.09 354.49 17.83
  A 0.31 0.30 1.0 0 0 354.79 17.55
  L 354.80 17.28
  Q 354.85 16.67 354.24 16.57
  C 343.43 14.86 332.39 14.20 321.38 13.04
  Q 320.56 12.95 321.35 12.69"
/>
<path stroke="#fee585" vector-effect="non-scaling-stroke" d="
  M 110.43 82.43
  Q 135.45 78.81 159.27 76.85
  Q 169.35 76.02 179.23 75.65
  C 190.23 75.24 201.10 74.57 212.00 74.71
  A 2.46 2.46 0.0 0 0 214.39 72.97
  Q 216.62 65.65 221.05 59.13
  A 0.58 0.58 0.0 0 0 220.55 58.22
  Q 195.26 58.88 168.05 63.44
  Q 137.01 68.64 111.68 80.26
  Q 111.23 80.47 110.86 80.80
  Q 110.45 81.17 110.03 81.52
  Q 108.63 82.69 110.43 82.43"
/>
<path stroke="#fee585" vector-effect="non-scaling-stroke" d="
  M 148.10 130.44
  Q 144.37 131.26 141.15 132.42
  Q 139.36 133.06 141.26 133.12
  Q 143.36 133.18 145.20 132.33
  C 146.50 131.72 148.11 132.54 149.52 132.50
  Q 169.84 131.94 187.63 131.81
  Q 189.03 131.80 190.34 131.52
  Q 191.74 131.23 191.11 129.95
  Q 184.49 116.52 177.61 102.49
  C 174.79 96.75 170.78 96.94 165.15 96.95
  Q 145.19 96.97 124.60 98.06
  Q 122.49 98.17 124.52 98.76
  C 127.27 99.55 130.87 99.49 132.60 102.27
  Q 140.93 115.69 148.86 128.65
  A 1.19 1.19 0.0 0 1 148.10 130.44"
/>
</g>
<path fill="#ffffff" d="
  M 353.11 14.02
  Q 352.88 14.03 352.88 14.26
  L 352.88 14.27
  Q 352.88 14.43 353.04 14.44
  Q 358.50 14.82 364.13 15.72
  A 1.70 1.69 -2.6 0 1 365.49 16.95
  Q 365.75 17.90 364.93 18.39
  Q 364.37 18.72 363.72 18.77
  Q 351.25 19.69 339.85 19.90
  Q 339.34 19.91 338.95 20.23
  Q 337.95 21.04 339.02 21.75
  Q 345.45 26.05 351.73 30.47
  Q 353.74 31.89 356.34 31.89
  C 361.99 31.89 367.56 32.92 373.24 33.21
  Q 381.93 33.64 390.09 34.32
  A 2.13 2.12 62.8 0 1 391.02 34.62
  Q 393.31 36.06 391.54 37.42
  A 1.27 1.26 26.1 0 1 390.77 37.68
  L 363.32 37.77
  Q 361.43 37.77 362.00 39.58
  Q 362.15 40.04 362.49 40.38
  Q 364.13 41.96 366.38 41.99
  Q 377.66 42.14 389.45 41.91
  A 0.80 0.80 0.0 0 1 390.26 42.78
  Q 390.10 44.60 388.28 45.25
  Q 368.16 52.48 350.14 51.71
  C 337.46 51.16 325.09 50.29 312.37 50.61
  Q 310.57 50.66 309.29 50.65
  Q 305.51 50.64 306.17 48.58
  A 1.27 1.26 -85.2 0 1 307.20 47.70
  Q 320.87 45.69 335.04 42.96
  Q 337.18 42.55 339.46 42.08
  C 343.74 41.19 344.10 35.30 342.77 32.07
  Q 341.95 30.09 339.85 29.06
  Q 336.09 27.20 332.41 25.14
  Q 316.50 16.23 297.94 13.57
  C 293.85 12.98 290.79 17.09 289.02 20.57
  Q 286.38 25.77 283.69 31.90
  Q 283.16 33.10 281.89 32.97
  A 1.88 1.87 -79.8 0 1 280.26 30.62
  Q 281.67 25.37 282.83 19.85
  Q 283.53 16.56 283.41 13.41
  A 0.88 0.87 0.7 0 0 282.59 12.57
  Q 276.66 12.18 270.43 11.75
  C 262.12 11.18 253.70 11.44 245.26 11.46
  Q 234.00 11.49 219.26 13.53
  Q 207.20 15.20 195.36 18.99
  C 186.33 21.88 178.92 26.26 171.07 31.49
  Q 170.13 32.11 169.61 33.11
  A 0.51 0.51 0.0 0 0 170.00 33.84
  Q 182.03 35.44 194.51 36.00
  Q 198.30 36.17 201.89 36.70
  C 205.27 37.21 208.63 37.03 212.07 37.45
  C 217.01 38.06 221.97 38.07 226.99 38.57
  Q 231.82 39.04 237.17 39.20
  Q 238.75 39.25 240.53 39.86
  Q 241.03 40.03 241.10 40.55
  Q 241.23 41.40 240.94 42.21
  Q 240.76 42.72 240.22 42.80
  Q 237.95 43.11 236.00 42.97
  Q 203.74 40.66 191.85 40.52
  C 183.43 40.42 175.09 40.16 166.70 40.63
  Q 146.45 41.79 126.92 44.03
  C 99.84 47.14 72.37 54.04 46.37 63.54
  Q 45.51 63.85 44.80 63.27
  Q 43.21 61.97 44.90 60.84
  Q 47.00 59.43 49.07 58.08
  Q 52.43 55.89 48.62 57.14
  Q 39.03 60.30 30.25 66.52
  Q 22.72 71.84 19.65 79.48
  C 18.72 81.79 18.83 84.31 18.24 86.72
  A 1.58 1.58 0.0 0 0 19.74 88.68
  C 34.95 89.03 49.35 89.38 63.74 90.15
  C 73.04 90.64 80.35 93.78 87.39 99.47
  C 97.37 107.54 105.12 116.62 112.89 126.92
  Q 117.12 132.52 121.90 138.47
  A 1.34 1.34 0.0 0 1 121.43 140.52
  Q 120.46 140.99 119.26 140.78
  C 115.13 140.07 110.97 140.10 106.77 139.86
  Q 79.37 138.27 57.05 135.23
  Q 49.78 134.24 43.14 133.52
  Q 31.74 132.29 17.96 129.55
  Q 13.49 128.66 12.32 124.54
  Q 10.54 118.29 8.71 111.26
  Q 5.00 96.97 7.55 84.07
  Q 8.85 77.50 14.15 69.81
  Q 17.89 64.39 24.53 59.82
  Q 34.39 53.04 43.21 50.00
  C 48.68 48.11 54.37 46.56 59.92 45.46
  Q 78.96 41.69 91.02 40.36
  Q 99.10 39.46 108.23 38.55
  Q 116.26 37.74 124.28 37.39
  C 126.95 37.27 129.48 36.45 132.11 36.26
  Q 140.58 35.64 149.54 33.37
  Q 151.77 32.81 153.83 31.68
  Q 159.02 28.83 164.13 25.60
  C 168.95 22.55 174.24 20.06 179.38 17.62
  Q 187.64 13.69 196.40 11.06
  C 200.19 9.92 204.24 9.64 208.15 8.72
  Q 210.17 8.25 212.18 7.97
  Q 220.51 6.81 226.64 6.09
  Q 235.66 5.04 253.33 4.71
  Q 262.80 4.53 273.42 4.71
  Q 296.70 5.11 314.52 6.24
  Q 331.33 7.32 344.37 7.90
  Q 349.32 8.13 354.15 8.59
  C 358.50 9.01 362.88 8.89 367.34 9.35
  C 375.11 10.16 383.78 9.60 392.16 11.03
  A 1.30 1.29 -83.8 0 1 393.24 12.38
  Q 393.19 13.50 391.64 13.69
  Q 390.68 13.80 389.68 13.79
  Q 370.22 13.57 353.11 14.02
  Z
  M 321.35 12.69
  Q 323.00 12.15 324.71 12.19
  Q 338.33 12.50 349.43 12.37
  Q 351.01 12.35 352.50 11.53
  Q 353.04 11.23 352.60 10.80
  Q 351.65 9.89 350.28 9.86
  Q 344.62 9.74 339.51 9.16
  Q 334.34 8.57 328.61 8.38
  C 314.23 7.90 299.18 6.83 285.01 6.56
  C 274.44 6.35 263.36 5.87 252.57 6.16
  Q 247.22 6.31 241.75 6.46
  C 233.72 6.68 225.72 7.67 217.86 8.48
  Q 214.45 8.83 210.69 9.50
  C 203.92 10.70 197.29 11.67 190.78 14.11
  Q 172.12 21.08 156.65 31.29
  Q 153.12 33.63 149.54 34.83
  C 144.40 36.55 139.04 36.35 133.72 37.27
  Q 127.51 38.34 122.43 38.34
  Q 119.23 38.34 115.99 39.13
  Q 112.48 39.99 108.48 39.65
  C 106.64 39.49 104.60 40.37 102.68 40.44
  Q 98.61 40.59 94.05 41.34
  C 91.88 41.70 89.67 41.40 87.54 42.06
  Q 83.60 43.28 79.10 43.40
  Q 75.30 43.50 71.59 44.26
  Q 63.07 45.98 54.43 48.02
  Q 51.33 48.75 48.19 49.80
  Q 45.03 50.86 42.06 51.82
  Q 39.32 52.69 36.65 53.96
  Q 33.96 55.24 31.50 56.50
  Q 27.33 58.65 22.71 62.16
  Q 18.42 65.42 15.68 69.21
  Q 12.16 74.10 10.12 79.66
  C 7.18 87.66 7.31 97.09 9.01 105.13
  Q 11.22 115.52 14.40 125.99
  A 2.52 2.50 83.7 0 0 16.61 127.77
  C 20.00 128.04 23.16 129.08 26.47 129.64
  Q 62.61 135.78 93.88 137.61
  Q 102.16 138.10 106.57 138.48
  C 110.54 138.82 114.40 138.69 118.41 139.09
  A 0.75 0.75 0.0 0 0 119.23 138.30
  Q 119.22 138.06 119.07 137.86
  C 110.36 126.10 101.26 114.08 90.54 104.34
  C 83.17 97.64 75.33 92.29 64.98 91.86
  Q 42.57 90.95 20.98 90.24
  C 18.81 90.17 16.52 90.33 16.63 87.52
  C 17.17 73.00 29.58 63.75 41.52 58.24
  C 52.17 53.33 64.33 50.18 75.73 48.00
  Q 76.02 47.95 76.09 48.23
  L 76.17 48.50
  Q 76.20 48.63 76.08 48.66
  Q 64.32 52.48 54.93 57.27
  Q 52.79 58.36 50.68 59.80
  Q 49.03 60.93 50.93 60.32
  Q 65.86 55.52 82.46 50.93
  Q 95.02 47.45 114.34 44.42
  Q 124.10 42.88 134.19 41.88
  Q 149.52 40.36 156.44 40.07
  Q 170.60 39.47 184.49 38.66
  A 0.62 0.61 74.1 0 0 184.99 37.75
  Q 184.58 37.01 183.50 36.88
  Q 175.05 35.84 166.64 35.02
  A 0.53 0.53 0.0 0 1 166.28 34.16
  Q 167.17 33.07 168.21 32.21
  C 177.93 24.20 189.03 19.11 201.05 15.88
  Q 211.20 13.16 222.54 11.80
  Q 249.03 8.62 273.32 10.44
  Q 277.58 10.76 282.25 10.83
  Q 285.45 10.88 285.26 13.88
  Q 284.90 19.35 283.19 25.31
  Q 282.88 26.40 283.12 27.45
  Q 283.34 28.36 283.75 27.52
  Q 286.56 21.82 289.34 16.90
  C 291.87 12.45 295.37 11.13 300.59 12.22
  Q 317.27 15.73 328.90 21.85
  Q 337.58 26.42 341.05 28.17
  C 343.03 29.17 343.95 30.30 344.66 32.27
  C 347.08 38.96 342.88 43.95 336.24 44.58
  Q 327.45 45.43 320.68 47.41
  Q 316.68 48.58 320.85 48.78
  Q 333.71 49.38 345.76 49.79
  Q 361.12 50.31 368.59 49.13
  Q 376.32 47.90 384.45 45.02
  A 0.59 0.59 0.0 0 0 384.80 44.23
  Q 384.54 43.64 383.87 43.68
  Q 376.82 44.05 370.67 43.91
  C 367.90 43.84 363.18 43.50 361.15 41.31
  Q 359.78 39.84 358.98 38.07
  A 1.08 1.08 0.0 0 1 359.97 36.54
  Q 368.66 36.68 376.78 35.63
  Q 376.87 35.62 376.81 35.56
  Q 376.77 35.52 376.74 35.47
  Q 376.61 35.27 376.42 35.26
  Q 364.62 34.45 354.33 32.89
  Q 351.58 32.47 348.49 29.82
  C 345.14 26.94 341.13 25.22 337.61 22.59
  C 336.49 21.75 335.17 21.35 333.94 20.70
  Q 330.94 19.12 334.32 19.29
  C 336.38 19.39 338.26 18.83 340.25 18.66
  Q 347.15 18.09 354.49 17.83
  A 0.31 0.30 1.0 0 0 354.79 17.55
  L 354.80 17.28
  Q 354.85 16.67 354.24 16.57
  C 343.43 14.86 332.39 14.20 321.38 13.04
  Q 320.56 12.95 321.35 12.69
  Z"
/>
<path fill="#fdcb0b" d="
  M 321.38 13.04
  C 332.39 14.20 343.43 14.86 354.24 16.57
  Q 354.85 16.67 354.80 17.28
  L 354.79 17.55
  A 0.31 0.30 1.0 0 1 354.49 17.83
  Q 347.15 18.09 340.25 18.66
  C 338.26 18.83 336.38 19.39 334.32 19.29
  Q 330.94 19.12 333.94 20.70
  C 335.17 21.35 336.49 21.75 337.61 22.59
  C 341.13 25.22 345.14 26.94 348.49 29.82
  Q 351.58 32.47 354.33 32.89
  Q 364.62 34.45 376.42 35.26
  Q 376.61 35.27 376.74 35.47
  Q 376.77 35.52 376.81 35.56
  Q 376.87 35.62 376.78 35.63
  Q 368.66 36.68 359.97 36.54
  A 1.08 1.08 0.0 0 0 358.98 38.07
  Q 359.78 39.84 361.15 41.31
  C 363.18 43.50 367.90 43.84 370.67 43.91
  Q 376.82 44.05 383.87 43.68
  Q 384.54 43.64 384.80 44.23
  A 0.59 0.59 0.0 0 1 384.45 45.02
  Q 376.32 47.90 368.59 49.13
  Q 361.12 50.31 345.76 49.79
  Q 333.71 49.38 320.85 48.78
  Q 316.68 48.58 320.68 47.41
  Q 327.45 45.43 336.24 44.58
  C 342.88 43.95 347.08 38.96 344.66 32.27
  C 343.95 30.30 343.03 29.17 341.05 28.17
  Q 337.58 26.42 328.90 21.85
  Q 317.27 15.73 300.59 12.22
  C 295.37 11.13 291.87 12.45 289.34 16.90
  Q 286.56 21.82 283.75 27.52
  Q 283.34 28.36 283.12 27.45
  Q 282.88 26.40 283.19 25.31
  Q 284.90 19.35 285.26 13.88
  Q 285.45 10.88 282.25 10.83
  Q 277.58 10.76 273.32 10.44
  Q 249.03 8.62 222.54 11.80
  Q 211.20 13.16 201.05 15.88
  C 189.03 19.11 177.93 24.20 168.21 32.21
  Q 167.17 33.07 166.28 34.16
  A 0.53 0.53 0.0 0 0 166.64 35.02
  Q 175.05 35.84 183.50 36.88
  Q 184.58 37.01 184.99 37.75
  A 0.62 0.61 74.1 0 1 184.49 38.66
  Q 170.60 39.47 156.44 40.07
  Q 149.52 40.36 134.19 41.88
  Q 124.10 42.88 114.34 44.42
  Q 95.02 47.45 82.46 50.93
  Q 65.86 55.52 50.93 60.32
  Q 49.03 60.93 50.68 59.80
  Q 52.79 58.36 54.93 57.27
  Q 64.32 52.48 76.08 48.66
  Q 76.20 48.63 76.17 48.50
  L 76.09 48.23
  Q 76.02 47.95 75.73 48.00
  C 64.33 50.18 52.17 53.33 41.52 58.24
  C 29.58 63.75 17.17 73.00 16.63 87.52
  C 16.52 90.33 18.81 90.17 20.98 90.24
  Q 42.57 90.95 64.98 91.86
  C 75.33 92.29 83.17 97.64 90.54 104.34
  C 101.26 114.08 110.36 126.10 119.07 137.86
  Q 119.22 138.06 119.23 138.30
  A 0.75 0.75 0.0 0 1 118.41 139.09
  C 114.40 138.69 110.54 138.82 106.57 138.48
  Q 102.16 138.10 93.88 137.61
  Q 62.61 135.78 26.47 129.64
  C 23.16 129.08 20.00 128.04 16.61 127.77
  A 2.52 2.50 83.7 0 1 14.40 125.99
  Q 11.22 115.52 9.01 105.13
  C 7.31 97.09 7.18 87.66 10.12 79.66
  Q 12.16 74.10 15.68 69.21
  Q 18.42 65.42 22.71 62.16
  Q 27.33 58.65 31.50 56.50
  Q 33.96 55.24 36.65 53.96
  Q 39.32 52.69 42.06 51.82
  Q 45.03 50.86 48.19 49.80
  Q 51.33 48.75 54.43 48.02
  Q 63.07 45.98 71.59 44.26
  Q 75.30 43.50 79.10 43.40
  Q 83.60 43.28 87.54 42.06
  C 89.67 41.40 91.88 41.70 94.05 41.34
  Q 98.61 40.59 102.68 40.44
  C 104.60 40.37 106.64 39.49 108.48 39.65
  Q 112.48 39.99 115.99 39.13
  Q 119.23 38.34 122.43 38.34
  Q 127.51 38.34 133.72 37.27
  C 139.04 36.35 144.40 36.55 149.54 34.83
  Q 153.12 33.63 156.65 31.29
  Q 172.12 21.08 190.78 14.11
  C 197.29 11.67 203.92 10.70 210.69 9.50
  Q 214.45 8.83 217.86 8.48
  C 225.72 7.67 233.72 6.68 241.75 6.46
  Q 247.22 6.31 252.57 6.16
  C 263.36 5.87 274.44 6.35 285.01 6.56
  C 299.18 6.83 314.23 7.90 328.61 8.38
  Q 334.34 8.57 339.51 9.16
  Q 344.62 9.74 350.28 9.86
  Q 351.65 9.89 352.60 10.80
  Q 353.04 11.23 352.50 11.53
  Q 351.01 12.35 349.43 12.37
  Q 338.33 12.50 324.71 12.19
  Q 323.00 12.15 321.35 12.69
  Q 320.56 12.95 321.38 13.04
  Z"
/>
<path fill="#ffffff" d="
  M 223.10 59.17
  C 219.61 63.94 217.81 68.72 215.85 74.08
  C 215.32 75.56 213.86 76.51 212.32 76.50
  C 177.58 76.13 143.17 79.04 108.49 83.98
  Q 107.41 84.13 106.56 83.52
  A 1.22 1.22 0.0 0 1 106.70 81.46
  Q 113.66 77.69 120.84 74.84
  Q 136.28 68.70 151.73 65.35
  Q 164.59 62.56 179.17 60.40
  Q 199.58 57.38 221.97 56.48
  A 1.23 1.18 58.6 0 1 222.68 56.67
  Q 224.22 57.64 223.10 59.17
  Z
  M 110.43 82.43
  Q 135.45 78.81 159.27 76.85
  Q 169.35 76.02 179.23 75.65
  C 190.23 75.24 201.10 74.57 212.00 74.71
  A 2.46 2.46 0.0 0 0 214.39 72.97
  Q 216.62 65.65 221.05 59.13
  A 0.58 0.58 0.0 0 0 220.55 58.22
  Q 195.26 58.88 168.05 63.44
  Q 137.01 68.64 111.68 80.26
  Q 111.23 80.47 110.86 80.80
  Q 110.45 81.17 110.03 81.52
  Q 108.63 82.69 110.43 82.43
  Z"
/>
<path fill="#fdcb0b" d="
  M 110.43 82.43
  Q 108.63 82.69 110.03 81.52
  Q 110.45 81.17 110.86 80.80
  Q 111.23 80.47 111.68 80.26
  Q 137.01 68.64 168.05 63.44
  Q 195.26 58.88 220.55 58.22
  A 0.58 0.58 0.0 0 1 221.05 59.13
  Q 216.62 65.65 214.39 72.97
  A 2.46 2.46 0.0 0 1 212.00 74.71
  C 201.10 74.57 190.23 75.24 179.23 75.65
  Q 169.35 76.02 159.27 76.85
  Q 135.45 78.81 110.43 82.43
  Z"
/>
<path fill="#ffffff" d="
  M 388.27 106.52
  C 396.78 109.76 407.39 107.45 416.01 104.01
  A 0.67 0.67 0.0 0 1 416.92 104.65
  Q 416.79 110.38 417.75 115.26
  A 1.80 1.80 0.0 0 1 416.59 117.30
  C 393.37 125.52 359.47 119.25 361.92 87.26
  C 362.87 74.77 370.96 65.28 383.14 62.29
  Q 399.76 58.21 415.04 63.00
  C 416.74 63.53 417.68 64.57 417.44 66.46
  Q 416.86 71.10 416.86 76.07
  A 0.89 0.89 0.0 0 1 415.61 76.88
  Q 403.93 71.60 391.23 73.79
  C 384.39 74.96 379.51 79.52 378.47 86.52
  C 377.19 95.22 379.40 103.14 388.27 106.52
  Z"
/>
<path fill="#ffffff" d="
  M 253.65 106.82
  L 287.57 106.81
  A 0.89 0.89 0.0 0 1 288.46 107.69
  L 288.55 118.40
  A 0.89 0.89 0.0 0 1 287.67 119.29
  L 237.99 119.46
  A 0.89 0.89 0.0 0 1 237.09 118.56
  L 237.23 62.25
  A 0.89 0.89 0.0 0 1 238.12 61.36
  L 286.48 61.51
  A 0.89 0.89 0.0 0 1 287.37 62.39
  L 287.49 73.14
  A 0.89 0.89 0.0 0 1 286.60 74.04
  L 253.73 74.03
  A 0.89 0.89 0.0 0 0 252.84 74.91
  L 252.76 84.00
  A 0.89 0.89 0.0 0 0 253.65 84.90
  L 278.11 84.91
  A 0.89 0.89 0.0 0 1 279.00 85.80
  L 279.05 94.89
  A 0.89 0.89 0.0 0 1 278.15 95.79
  L 253.60 95.74
  A 0.89 0.89 0.0 0 0 252.70 96.64
  L 252.76 105.93
  A 0.89 0.89 0.0 0 0 253.65 106.82
  Z"
/>
<path fill="#ffffff" d="
  M 293.94 62.42
  A 0.85 0.85 0.0 0 1 294.79 61.57
  L 326.49 61.52
  A 30.25 27.17 -0.1 0 1 356.79 88.64
  L 356.79 92.00
  A 30.25 27.17 -0.1 0 1 326.59 119.22
  L 294.89 119.27
  A 0.85 0.85 0.0 0 1 294.04 118.42
  L 293.94 62.42
  Z
  M 309.97 74.38
  L 310.03 106.56
  A 0.33 0.33 0.0 0 0 310.36 106.89
  L 324.87 106.86
  A 15.66 14.60 -0.1 0 0 340.50 92.23
  L 340.50 88.59
  A 15.66 14.60 -0.1 0 0 324.81 74.02
  L 310.30 74.05
  A 0.33 0.33 0.0 0 0 309.97 74.38
  Z"
/>
<path fill="#ffffff" d="
  M 442.26 107.34
  A 1.77 1.77 0.0 0 0 440.55 108.60
  L 437.58 118.40
  A 1.17 1.16 -81.6 0 1 436.47 119.23
  L 421.82 119.26
  A 1.12 1.12 0.0 0 1 420.76 117.79
  L 439.26 62.51
  A 1.51 1.50 10.4 0 1 440.74 61.49
  Q 454.28 61.98 466.49 61.48
  Q 468.34 61.41 470.12 62.03
  Q 470.65 62.22 470.83 62.75
  L 489.63 118.53
  A 0.59 0.59 0.0 0 1 489.08 119.30
  L 474.01 119.48
  A 1.49 1.49 0.0 0 1 472.56 118.43
  L 469.41 108.30
  A 1.25 1.23 81.4 0 0 468.23 107.42
  L 442.26 107.34
  Z
  M 444.57 94.97
  A 0.92 0.92 0.0 0 0 445.44 96.16
  L 464.66 96.19
  A 0.92 0.92 0.0 0 0 465.54 95.01
  L 455.99 63.63
  A 0.92 0.92 0.0 0 0 454.23 63.63
  L 444.57 94.97
  Z"
/>
<path fill="#ffffff" d="
  M 535.88 98.24
  Q 534.92 98.54 535.53 99.35
  Q 541.63 107.34 547.90 115.27
  Q 549.16 116.87 550.12 118.54
  Q 550.56 119.30 549.69 119.30
  L 534.91 119.29
  A 1.85 1.83 -18.8 0 1 533.46 118.59
  L 511.71 91.16
  A 0.42 0.41 -21.8 0 1 512.00 90.49
  Q 516.43 90.11 520.89 90.46
  Q 523.42 90.67 526.22 90.08
  C 531.12 89.05 534.11 84.38 533.05 79.49
  Q 531.53 72.47 522.97 72.56
  Q 516.98 72.62 511.13 72.69
  A 0.81 0.81 0.0 0 0 510.34 73.37
  Q 510.05 75.12 510.06 76.83
  Q 510.27 98.76 510.06 118.38
  A 0.99 0.98 0.3 0 1 509.07 119.35
  L 495.74 119.30
  A 1.19 1.19 0.0 0 1 494.56 118.11
  Q 494.50 92.76 494.57 67.09
  Q 494.58 64.68 494.88 62.19
  A 0.79 0.79 0.0 0 1 495.66 61.50
  Q 509.41 61.44 522.53 61.58
  Q 529.29 61.65 535.74 63.48
  Q 545.34 66.20 548.54 75.58
  C 552.02 85.76 545.43 95.20 535.88 98.24
  Z"
/>
<path fill="#ffffff" d="
  M 146.20 127.33
  L 131.18 102.72
  A 3.41 3.39 77.9 0 0 128.72 101.12
  Q 124.23 100.51 119.61 99.74
  Q 118.24 99.51 117.27 98.71
  Q 116.30 97.89 116.94 96.82
  A 1.45 1.45 0.0 0 1 118.20 96.12
  Q 132.55 96.31 145.22 95.58
  C 153.09 95.13 160.32 95.38 168.16 95.17
  C 173.20 95.04 176.65 96.88 178.86 101.35
  Q 186.52 116.88 193.51 131.09
  A 1.27 1.27 0.0 0 1 192.42 132.92
  Q 172.87 133.65 148.15 133.86
  Q 143.18 133.90 137.98 134.58
  Q 136.46 134.77 135.52 133.75
  A 1.22 1.22 0.0 0 1 135.96 131.79
  Q 139.75 130.25 145.04 129.68
  Q 147.47 129.41 146.20 127.33
  Z
  M 148.10 130.44
  Q 144.37 131.26 141.15 132.42
  Q 139.36 133.06 141.26 133.12
  Q 143.36 133.18 145.20 132.33
  C 146.50 131.72 148.11 132.54 149.52 132.50
  Q 169.84 131.94 187.63 131.81
  Q 189.03 131.80 190.34 131.52
  Q 191.74 131.23 191.11 129.95
  Q 184.49 116.52 177.61 102.49
  C 174.79 96.75 170.78 96.94 165.15 96.95
  Q 145.19 96.97 124.60 98.06
  Q 122.49 98.17 124.52 98.76
  C 127.27 99.55 130.87 99.49 132.60 102.27
  Q 140.93 115.69 148.86 128.65
  A 1.19 1.19 0.0 0 1 148.10 130.44
  Z"
/>
<path fill="#fdcb0b" d="
  M 148.10 130.44
  A 1.19 1.19 0.0 0 0 148.86 128.65
  Q 140.93 115.69 132.60 102.27
  C 130.87 99.49 127.27 99.55 124.52 98.76
  Q 122.49 98.17 124.60 98.06
  Q 145.19 96.97 165.15 96.95
  C 170.78 96.94 174.79 96.75 177.61 102.49
  Q 184.49 116.52 191.11 129.95
  Q 191.74 131.23 190.34 131.52
  Q 189.03 131.80 187.63 131.81
  Q 169.84 131.94 149.52 132.50
  C 148.11 132.54 146.50 131.72 145.20 132.33
  Q 143.36 133.18 141.26 133.12
  Q 139.36 133.06 141.15 132.42
  Q 144.37 131.26 148.10 130.44
  Z"
/>
<path fill="#eccc35" d="
  M 242.72 142.75
  Q 244.53 143.19 246.67 142.71
  Q 248.89 142.22 249.17 144.47
  Q 249.20 144.70 249.27 145.21
  Q 249.53 147.27 247.45 147.33
  L 238.26 147.57
  A 0.82 0.81 -0.7 0 1 237.42 146.76
  L 237.41 130.59
  Q 237.41 128.95 239.04 129.08
  L 240.81 129.23
  A 1.36 1.35 -88.4 0 1 242.05 130.55
  L 242.31 142.23
  A 0.55 0.54 -83.8 0 0 242.72 142.75
  Z"
/>
<rect fill="#eccc35" x="301.25" y="129.16" width="4.70" height="18.34" rx="1.65"/>
<path fill="#eccc35" d="
  M 356.58 144.85
  Q 352.54 143.69 350.99 146.18
  C 350.31 147.29 348.65 147.75 347.69 146.80
  Q 347.34 146.45 347.34 145.95
  Q 347.35 145.02 347.57 144.19
  Q 349.11 138.35 350.61 132.59
  Q 351.86 127.75 356.58 129.37
  Q 357.14 129.57 357.31 130.13
  L 362.04 145.90
  A 0.99 0.98 69.7 0 1 361.51 147.07
  Q 358.64 148.37 357.52 145.70
  Q 357.25 145.05 356.58 144.85
  Z
  M 352.79 140.03
  A 0.33 0.33 0.0 0 0 353.05 140.45
  L 355.46 140.86
  A 0.33 0.33 0.0 0 0 355.84 140.49
  L 355.01 135.27
  A 0.33 0.33 0.0 0 0 354.37 135.22
  L 352.79 140.03
  Z"
/>
<path fill="#eccc35" d="
  M 460.96 134.36
  L 460.95 135.89
  A 0.74 0.74 0.0 0 0 461.61 136.63
  L 465.56 137.07
  A 0.74 0.74 0.0 0 1 466.21 137.83
  L 466.15 139.64
  A 0.74 0.74 0.0 0 1 465.43 140.35
  L 461.49 140.50
  A 0.74 0.74 0.0 0 0 460.77 141.21
  L 460.55 146.81
  A 0.74 0.74 0.0 0 1 459.73 147.51
  L 457.14 147.23
  A 0.74 0.74 0.0 0 1 456.48 146.50
  L 456.33 129.86
  A 0.74 0.74 0.0 0 1 457.09 129.11
  L 466.39 129.38
  A 0.74 0.74 0.0 0 1 467.11 130.11
  L 467.14 132.46
  A 0.74 0.74 0.0 0 1 466.47 133.21
  L 461.64 133.63
  A 0.74 0.74 0.0 0 0 460.96 134.36
  Z"
/>
<path fill="#eccc35" d="
  M 473.88 129.16
  A 1.06 1.06 0.0 0 1 474.92 130.24
  L 474.67 144.76
  A 2.80 1.68 -89.0 0 1 472.94 147.53
  L 471.66 147.51
  A 2.80 1.68 -89.0 0 1 470.03 144.68
  L 470.28 130.16
  A 1.06 1.06 0.0 0 1 471.36 129.12
  L 473.88 129.16
  Z"
/>
<path fill="#eccc35" d="
  M 483.98 142.79
  L 488.99 142.91
  A 1.10 1.10 0.0 0 1 490.05 143.88
  L 490.33 146.22
  A 1.10 1.10 0.0 0 1 489.24 147.45
  L 479.37 147.41
  A 1.10 1.10 0.0 0 1 478.28 146.32
  L 478.26 130.17
  A 1.10 1.10 0.0 0 1 479.39 129.07
  L 481.80 129.14
  A 1.10 1.10 0.0 0 1 482.86 130.24
  L 482.91 141.69
  A 1.10 1.10 0.0 0 0 483.98 142.79
  Z"
/>
<path fill="#eccc35" d="
  M 258.05 143.40
  Q 258.37 143.48 258.68 143.40
  Q 260.50 142.92 260.69 141.05
  Q 261.19 136.04 260.73 130.91
  Q 260.57 129.18 262.31 129.24
  L 264.06 129.29
  Q 265.74 129.35 265.54 131.02
  Q 265.10 134.54 265.53 139.11
  C 265.77 141.68 264.08 146.30 261.38 147.33
  C 257.63 148.76 251.77 146.89 251.23 142.37
  Q 250.60 137.09 251.08 130.19
  A 1.03 1.02 1.5 0 1 252.08 129.25
  L 254.40 129.22
  Q 255.85 129.20 255.85 130.65
  L 255.87 140.56
  Q 255.88 142.81 258.05 143.40
  Z"
/>
<path fill="#eccc35" d="
  M 280.60 137.97
  Q 283.37 141.65 281.43 145.57
  Q 280.80 146.83 279.33 147.07
  Q 274.98 147.77 270.59 147.50
  Q 268.74 147.39 268.70 145.53
  L 268.41 130.63
  A 1.31 1.31 0.0 0 1 269.69 129.30
  Q 273.09 129.24 277.15 129.19
  C 279.92 129.16 281.69 131.01 281.76 133.66
  C 281.79 134.92 280.95 135.87 280.48 136.99
  Q 280.26 137.51 280.60 137.97
  Z
  M 277.1331 134.5308
  A 1.33 1.33 0.0 0 0 275.8241 133.1801
  L 274.5643 133.1603
  A 1.33 1.33 0.0 0 0 273.2135 134.4692
  L 273.2069 134.8892
  A 1.33 1.33 0.0 0 0 274.5159 136.2399
  L 275.7757 136.2597
  A 1.33 1.33 0.0 0 0 277.1265 134.9508
  L 277.1331 134.5308
  Z
  M 277.7873 141.4674
  A 2.39 1.97 -2.7 0 0 275.3072 139.6122
  A 2.39 1.97 -2.7 0 0 273.0127 141.6926
  A 2.39 1.97 -2.7 0 0 275.4928 143.5478
  A 2.39 1.97 -2.7 0 0 277.7873 141.4674
  Z"
/>
<path fill="#eccc35" d="
  M 290.64 140.15
  A 0.60 0.60 0.0 0 0 289.56 140.50
  L 289.40 145.45
  Q 289.33 147.48 287.30 147.51
  L 287.04 147.52
  Q 285.60 147.54 285.31 146.13
  C 284.23 140.88 285.02 135.69 284.87 130.36
  A 1.07 1.06 -1.3 0 1 285.92 129.27
  Q 289.98 129.20 294.12 129.21
  Q 296.85 129.22 297.72 132.05
  C 298.62 134.96 297.54 136.67 295.99 138.94
  Q 295.66 139.43 295.96 139.93
  Q 297.76 142.96 298.56 145.99
  Q 298.93 147.39 297.49 147.38
  L 295.67 147.38
  Q 294.30 147.38 293.83 146.09
  Q 292.58 142.71 290.64 140.15
  Z
  M 293.5823 134.0507
  A 2.33 1.96 -19.8 0 0 290.7261 132.9959
  A 2.33 1.96 -19.8 0 0 289.1977 135.6293
  A 2.33 1.96 -19.8 0 0 292.0539 136.6841
  A 2.33 1.96 -19.8 0 0 293.5823 134.0507
  Z"
/>
<path fill="#eccc35" d="
  M 314.00 141.01
  L 313.67 146.44
  A 0.75 0.75 0.0 0 1 313.05 147.14
  L 310.21 147.66
  A 0.75 0.75 0.0 0 1 309.32 146.93
  L 309.21 130.03
  A 0.75 0.75 0.0 0 1 309.97 129.27
  L 319.73 129.31
  A 0.75 0.75 0.0 0 1 320.47 130.01
  L 320.63 132.53
  A 0.75 0.75 0.0 0 1 319.92 133.33
  L 314.75 133.58
  A 0.75 0.75 0.0 0 0 314.04 134.33
  L 314.03 136.02
  A 0.75 0.75 0.0 0 0 314.70 136.77
  L 319.23 137.27
  A 0.75 0.75 0.0 0 1 319.88 138.13
  L 319.66 139.60
  A 0.75 0.75 0.0 0 1 318.93 140.24
  L 314.73 140.31
  A 0.75 0.75 0.0 0 0 314.00 141.01
  Z"
/>
<rect fill="#eccc35" x="-2.39" y="-9.08" transform="translate(326.00,138.31) rotate(-0.1)" width="4.78" height="18.16" rx="1.73"/>
<path fill="#eccc35" d="
  M 339.31 133.29
  A 1.99 1.98 28.0 0 0 336.51 134.14
  Q 334.35 138.66 336.40 142.41
  C 337.32 144.10 339.35 144.11 340.31 142.45
  C 341.28 140.80 343.18 139.44 344.83 141.13
  Q 345.29 141.61 345.16 142.26
  Q 343.94 148.16 338.04 147.75
  C 336.07 147.61 333.95 146.74 332.94 145.01
  Q 328.59 137.59 333.38 130.91
  C 335.79 127.56 343.79 129.04 344.64 133.24
  A 1.66 1.66 0.0 0 1 342.17 134.99
  L 339.31 133.29
  Z"
/>
<path fill="#eccc35" d="
  M 368.71 139.21
  L 368.35 146.19
  Q 368.29 147.53 366.94 147.49
  L 366.43 147.48
  Q 364.44 147.43 364.39 145.43
  L 364.04 130.63
  Q 364.02 129.84 364.75 129.51
  C 366.13 128.88 368.33 128.94 369.09 130.54
  Q 370.68 133.87 372.78 136.79
  Q 374.19 138.75 374.20 136.33
  Q 374.22 133.84 374.02 131.35
  Q 373.85 129.22 375.99 129.23
  L 376.47 129.23
  Q 378.69 129.24 378.63 131.47
  L 378.26 146.24
  Q 378.24 146.80 377.70 146.97
  Q 376.07 147.49 374.53 147.17
  Q 374.07 147.07 373.83 146.67
  L 369.19 139.09
  Q 368.75 138.39 368.71 139.21
  Z"
/>
<path fill="#eccc35" d="
  M 389.97 134.18
  L 389.89 146.07
  Q 389.88 147.51 388.43 147.51
  L 387.30 147.51
  Q 385.55 147.51 385.41 145.77
  Q 385.02 140.83 385.65 135.44
  A 1.95 1.95 0.0 0 0 383.72 133.27
  L 382.12 133.26
  Q 381.62 133.26 381.37 132.83
  Q 380.81 131.88 380.97 130.78
  A 1.86 1.86 0.0 0 1 382.97 129.19
  Q 388.13 129.62 392.94 129.21
  Q 394.52 129.08 394.51 130.67
  L 394.51 131.46
  Q 394.50 133.16 392.79 133.22
  L 390.83 133.29
  Q 389.98 133.32 389.97 134.18
  Z"
/>
<path fill="#eccc35" d="
  M 401.33 140.44
  C 400.46 143.85 404.63 143.49 406.62 143.32
  Q 408.69 143.13 409.00 145.19
  L 409.08 145.74
  Q 409.36 147.57 407.51 147.55
  L 398.31 147.43
  A 1.55 1.54 85.3 0 1 396.80 146.14
  Q 396.55 144.67 396.53 143.23
  Q 396.44 137.41 396.65 130.84
  A 1.38 1.38 0.0 0 1 397.99 129.50
  L 406.96 129.21
  Q 409.02 129.15 408.99 131.21
  L 408.98 131.77
  A 1.58 1.58 0.0 0 1 407.23 133.31
  Q 404.43 133.00 402.20 133.70
  Q 400.84 134.13 401.55 135.36
  Q 401.65 135.53 401.82 135.61
  Q 403.35 136.40 404.89 136.09
  Q 405.72 135.92 406.55 135.77
  Q 407.62 135.58 408.03 136.58
  Q 408.47 137.67 408.34 138.75
  A 1.10 1.10 0.0 0 1 407.27 139.72
  L 402.10 139.83
  Q 401.49 139.85 401.33 140.44
  Z"
/>
<path fill="#eccc35" d="
  M 419.67 143.36
  Q 420.63 141.43 418.52 140.59
  C 415.17 139.25 411.09 138.19 411.83 133.55
  C 412.53 129.12 416.08 128.69 419.77 129.36
  Q 422.40 129.83 423.18 132.13
  C 423.68 133.60 422.42 134.80 421.06 134.96
  A 0.83 0.82 70.2 0 1 420.27 134.58
  Q 419.41 133.27 418.06 132.40
  Q 417.18 131.84 416.62 132.73
  L 416.38 133.11
  Q 415.77 134.09 416.78 134.65
  Q 418.23 135.45 420.04 136.01
  C 426.39 137.94 425.50 146.00 419.89 147.43
  Q 414.08 148.91 411.73 144.29
  A 2.40 2.40 0.0 0 1 412.50 141.23
  Q 413.52 140.52 414.80 140.77
  Q 415.35 140.88 415.54 141.40
  Q 415.97 142.60 416.77 143.64
  A 1.72 1.72 0.0 0 0 419.67 143.36
  Z"
/>
<path fill="#eccc35" d="
  M 440.06 143.15
  L 444.55 143.34
  Q 446.44 143.42 446.51 145.30
  L 446.53 145.97
  Q 446.59 147.54 445.03 147.53
  L 435.68 147.47
  A 1.64 1.64 0.0 0 1 434.05 145.83
  L 434.06 131.07
  A 1.65 1.65 0.0 0 1 435.68 129.42
  L 444.69 129.25
  Q 446.43 129.21 446.52 130.95
  L 446.55 131.48
  Q 446.66 133.36 444.77 133.47
  L 439.82 133.74
  A 0.90 0.89 1.5 0 0 438.97 134.54
  Q 438.86 135.55 439.82 135.67
  Q 442.09 135.96 444.48 136.03
  A 1.77 1.77 0.0 0 1 446.18 137.60
  L 446.23 138.06
  Q 446.38 139.49 444.94 139.57
  L 440.13 139.82
  Q 439.12 139.87 439.01 140.87
  L 438.92 141.82
  A 1.20 1.20 0.0 0 0 440.06 143.15
  Z"
/>
<path fill="#eccc35" d="
  M 500.85 133.22
  Q 499.41 133.05 499.40 134.50
  L 499.28 145.81
  Q 499.26 147.45 497.63 147.57
  Q 497.36 147.59 497.09 147.59
  Q 495.01 147.54 495.00 145.46
  L 494.99 134.12
  Q 494.99 133.51 494.37 133.45
  L 491.36 133.20
  A 1.62 1.61 3.6 0 1 489.89 131.54
  Q 489.91 130.96 490.17 130.39
  A 1.85 1.83 -77.2 0 1 491.85 129.32
  Q 496.48 129.36 501.43 129.32
  Q 503.06 129.31 504.39 130.07
  Q 504.79 130.30 504.66 130.74
  Q 503.86 133.57 500.85 133.22
  Z"
/>
<path fill="#eccc35" d="
  M 512.07 140.17
  A 0.63 0.63 0.0 0 0 510.98 140.57
  L 510.66 146.29
  Q 510.58 147.67 509.21 147.58
  L 508.28 147.52
  Q 506.41 147.40 506.42 145.53
  L 506.52 131.00
  A 1.66 1.65 88.5 0 1 508.06 129.37
  Q 512.04 129.09 515.63 129.33
  C 519.87 129.61 521.16 133.90 519.11 137.18
  Q 518.47 138.19 517.78 139.08
  Q 517.43 139.54 517.68 140.07
  L 520.23 145.25
  Q 521.20 147.22 519.01 147.44
  L 518.33 147.50
  Q 516.11 147.72 515.39 145.62
  Q 514.34 142.60 512.07 140.17
  Z
  M 515.18 134.78
  A 2.21 2.21 0.0 0 0 512.97 132.57
  A 2.21 2.21 0.0 0 0 510.76 134.78
  A 2.21 2.21 0.0 0 0 512.97 136.99
  A 2.21 2.21 0.0 0 0 515.18 134.78
  Z"
/>
<path fill="#eccc35" d="
  M 529.9750 147.8963
  A 9.49 7.68 88.4 0 1 522.0330 138.6244
  A 9.49 7.68 88.4 0 1 529.4450 128.9237
  A 9.49 7.68 88.4 0 1 537.3870 138.1956
  A 9.49 7.68 88.4 0 1 529.9750 147.8963
  Z
  M 529.4348 143.7630
  A 5.44 3.34 92.9 0 0 533.0457 138.4990
  A 5.44 3.34 92.9 0 0 529.9852 132.8970
  A 5.44 3.34 92.9 0 0 526.3743 138.1610
  A 5.44 3.34 92.9 0 0 529.4348 143.7630
  Z"
/>
<path fill="#eccc35" d="
  M 544.54 132.92
  C 543.66 134.79 545.87 135.72 547.27 135.92
  C 551.14 136.48 553.52 140.23 551.86 143.88
  Q 549.59 148.87 543.16 147.21
  Q 540.56 146.55 539.97 143.51
  A 2.32 2.31 -25.1 0 1 540.79 141.26
  Q 541.35 140.80 542.07 140.61
  Q 543.39 140.26 543.76 141.58
  Q 544.15 142.97 545.04 143.93
  A 1.56 1.55 -44.1 0 0 547.30 143.96
  C 548.48 142.75 548.40 140.60 546.49 140.35
  C 543.46 139.96 540.74 138.23 540.09 135.21
  C 538.61 128.40 547.37 127.87 550.81 131.22
  A 1.90 1.90 0.0 0 1 551.21 133.36
  Q 550.58 134.76 549.10 134.93
  Q 548.63 134.98 548.42 134.56
  Q 547.46 132.69 545.44 132.43
  A 0.88 0.87 16.2 0 0 544.54 132.92
  Z"
/>
</svg>
